<svg version="1.1" xmlns="http://www.w3.org/2000/svg" 
     width="100%" 
     viewBox="0 120 1200 550" 
     xml:space="preserve">
     <g stroke="none">
<path fill="#985C91" opacity="1.000000" stroke="none" 
	d="
M136.458923,253.381195 
	C133.743347,220.614960 153.257217,193.516052 183.920685,186.882019 
	C216.499008,179.833664 248.694138,200.848404 255.734650,233.757172 
	C262.607697,265.883087 241.139679,298.433228 208.721191,305.039703 
	C174.254990,312.063477 141.881439,289.081512 136.458923,253.381195 
M222.429031,269.910858 
	C223.262711,268.872681 224.137268,267.864502 224.923859,266.791840 
	C234.295135,254.012421 234.128815,237.164810 224.520874,224.474503 
	C215.305786,212.303070 198.838120,207.561966 184.174057,212.858536 
	C169.771942,218.060501 159.987625,232.585114 161.175507,247.923477 
	C162.301315,262.460510 169.642441,273.201630 183.277817,278.558990 
	C197.653839,284.207367 210.720169,281.096619 222.429031,269.910858 
z"/>
<path fill="#985D91" opacity="1.000000" stroke="none" 
	d="
M532.024536,165.075348 
	C555.176880,124.339638 608.374634,120.730286 635.206970,157.740341 
	C660.932861,193.224319 639.209595,245.447968 595.987244,252.026093 
	C558.892395,257.671661 526.747192,231.300461 525.367310,193.824310 
	C525.001526,183.889847 527.213135,174.314407 532.024536,165.075348 
M550.659180,193.447998 
	C550.682556,193.947052 550.696960,194.446732 550.730591,194.945084 
	C552.104065,215.314392 570.528748,230.671494 590.080139,227.744873 
	C611.467651,224.543396 625.020569,205.086960 620.169373,184.549042 
	C616.168640,167.611435 599.837097,155.511154 583.323181,157.249084 
	C564.171875,159.264542 551.479553,172.959641 550.659180,193.447998 
z"/>
<path fill="#985C91" opacity="1.000000" stroke="none" 
	d="
M927.318237,282.660370 
	C900.346069,245.136566 919.724609,195.389969 964.447876,186.488937 
	C997.822510,179.846542 1031.603027,205.126358 1035.190552,238.553268 
	C1038.094360,265.611633 1022.740417,291.808533 998.027405,301.907104 
	C973.144226,312.075256 945.708008,304.733704 927.318237,282.660370 
M979.124512,280.996399 
	C980.754028,280.682617 982.401978,280.443085 984.010193,280.043610 
	C999.473145,276.202576 1010.176208,262.548096 1010.635986,246.116150 
	C1011.048645,231.368347 1000.314575,216.683899 985.849487,212.207581 
	C970.860352,207.569107 954.356873,213.309875 945.912842,226.308289 
	C938.151306,238.256058 937.590698,250.812698 944.516235,263.146057 
	C951.787537,276.095276 963.395691,281.827850 979.124512,280.996399 
z"/>
<path fill="#985D91" opacity="1.000000" stroke="none" 
	d="
M515.746582,656.860474 
	C499.207764,666.876892 480.691650,659.641113 472.140930,640.788879 
	C466.840759,629.103271 464.751038,616.624939 463.382141,604.048706 
	C461.617310,587.834656 459.563080,571.592590 459.010773,555.315857 
	C456.055450,468.231323 484.743317,392.327209 541.089722,326.450470 
	C546.598694,320.009674 552.597961,313.988251 559.268921,306.803680 
	C548.005554,303.445709 537.398926,299.879791 526.580627,297.154144 
	C510.855103,293.192200 494.739288,292.418976 478.557739,291.790100 
	C429.136292,289.869293 381.331543,297.493896 335.121155,315.009583 
	C306.014465,326.042206 281.681854,343.947784 261.247437,367.294983 
	C260.829895,367.772064 260.520264,368.343597 260.250854,368.738342 
	C268.825684,375.322388 277.489502,381.482178 285.596710,388.303497 
	C301.896851,402.018372 315.379272,418.388184 327.588928,435.702850 
	C341.022522,454.753174 353.851471,474.236084 366.687653,493.699524 
	C376.113708,507.992126 381.834839,523.950623 387.146729,540.144531 
	C391.159943,552.379211 393.956696,564.726562 394.292175,577.560791 
	C394.695892,593.004456 395.778870,608.528809 391.190918,623.643677 
	C386.091064,640.445007 370.008575,646.969666 355.854340,636.716003 
	C347.381622,630.578247 339.815247,622.591431 333.494598,614.191833 
	C313.767365,587.976196 294.828369,561.167419 275.576843,534.593628 
	C274.804901,533.528076 273.962250,532.513794 271.984833,531.632751 
	C272.459442,536.374695 272.724518,541.148804 273.446167,545.852844 
	C276.069977,562.955383 279.175781,579.990662 281.456299,597.136902 
	C283.131134,609.729309 281.375854,622.114502 275.650940,633.618225 
	C266.975922,651.049744 248.969742,654.566040 235.553543,640.478271 
	C228.338226,632.901794 222.213745,623.717651 217.674789,614.261597 
	C199.853882,577.135254 187.950531,538.080933 182.344986,497.205658 
	C181.987900,494.601929 181.878510,491.812683 182.412125,489.268829 
	C183.647064,483.381653 189.284973,479.557037 195.462006,479.933929 
	C201.489120,480.301697 206.213348,484.832611 206.963898,491.122040 
	C211.581757,529.818726 223.144653,566.502747 239.275558,601.819946 
	C241.955841,607.688110 245.596161,613.127563 248.939713,618.676636 
	C249.822128,620.141174 251.252441,621.275635 252.962692,623.141602 
	C256.670990,615.018616 257.678162,607.408752 256.530304,599.549377 
	C254.270309,584.075500 251.265366,568.686157 249.666473,553.148865 
	C248.690369,543.663391 248.261337,533.647888 250.225754,524.433105 
	C254.193344,505.821808 268.263428,501.402344 283.483826,512.957825 
	C296.505615,522.844177 306.502777,535.585144 316.192291,548.533264 
	C330.163696,567.203247 343.841614,586.092773 357.791718,604.778931 
	C360.448975,608.338318 363.788239,611.388489 367.885040,615.838135 
	C368.706055,609.495911 369.568054,604.552612 369.952881,599.572510 
	C371.782135,575.899536 366.356995,553.634705 356.624146,532.229370 
	C328.920837,471.301819 287.502319,422.358307 230.217773,387.185944 
	C226.990982,385.204712 224.962341,385.364258 221.940842,387.532776 
	C198.261398,404.527374 174.542130,421.471100 150.616760,438.116608 
	C136.090988,448.222656 120.111649,455.384308 102.383705,457.344269 
	C82.457123,459.547272 63.108387,457.632782 45.943489,445.826324 
	C35.537800,438.669067 31.981293,427.891296 29.608444,416.088013 
	C25.825596,397.270844 26.434959,379.049561 34.269939,361.326599 
	C45.666534,335.547119 65.896202,322.215607 93.613609,321.171509 
	C139.431000,319.445618 183.444763,327.575897 224.754501,348.133575 
	C228.292648,349.894348 230.474640,349.659210 233.499435,347.150299 
	C276.955231,311.105133 325.859070,286.231171 381.590790,275.555267 
	C422.696625,267.681091 464.168365,264.768066 505.876495,268.289154 
	C532.638550,270.548462 558.040833,278.572388 582.213928,290.284027 
	C584.864319,291.568085 586.858276,291.597870 589.572693,290.289459 
	C622.022888,274.647095 656.207092,266.801605 692.334290,266.907806 
	C734.978210,267.033173 777.124817,270.646301 818.303345,282.406433 
	C863.048889,295.185242 902.694031,317.454865 938.201111,347.261658 
	C941.523499,350.050720 943.602661,349.549408 946.755920,347.568573 
	C979.099731,327.250854 1014.552612,316.507263 1052.443481,312.806641 
	C1081.919189,309.927917 1109.654907,314.893646 1134.895996,330.461121 
	C1160.794312,346.433838 1171.081299,370.638611 1169.302856,400.505981 
	C1168.479980,414.325165 1164.721191,427.041779 1155.424927,437.670532 
	C1144.256836,450.439484 1129.449585,455.894775 1113.211304,457.974182 
	C1078.216309,462.455566 1045.888062,454.767944 1016.833496,434.899353 
	C991.412415,417.515472 966.501038,399.382111 941.516846,381.368469 
	C938.528992,379.214172 936.803284,379.170074 933.892822,381.326843 
	C896.773376,408.833099 868.096069,443.816620 843.619385,482.583679 
	C829.001465,505.735901 816.076843,529.698730 807.393311,555.788452 
	C801.388306,573.830505 799.686462,592.174622 803.002747,610.936951 
	C803.146179,611.748474 803.346191,612.556946 803.609009,613.336792 
	C803.698730,613.603027 804.062378,613.776917 805.059814,614.680603 
	C808.739624,610.489319 812.712646,606.523865 816.041931,602.076538 
	C831.513611,581.409180 846.587280,560.440674 862.250061,539.920898 
	C871.030273,528.418030 880.226074,517.080994 893.272949,509.909454 
	C905.664673,503.098053 917.522095,507.606140 920.677490,521.501648 
	C922.703064,530.421875 923.257874,540.047424 922.412659,549.165894 
	C920.941162,565.040039 917.786865,580.753479 915.518433,596.560242 
	C914.262024,605.314697 914.250000,614.007202 919.013367,623.430786 
	C921.966919,619.383911 924.743774,616.324097 926.681824,612.802612 
	C939.271118,589.927795 948.137329,565.515015 954.774536,540.382446 
	C958.840149,524.987793 961.362793,509.173523 964.277100,493.491699 
	C965.860840,484.969391 969.284668,480.539032 975.817566,479.952240 
	C984.344971,479.186249 990.683350,485.997894 989.615234,494.801361 
	C986.212341,522.846924 979.536072,550.158386 969.550537,576.518616 
	C963.261597,593.120667 955.845032,609.352112 947.950745,625.261719 
	C944.789246,631.633301 939.665527,637.471130 934.252869,642.198486 
	C921.028137,653.748901 905.009216,650.404907 896.677307,634.886780 
	C889.702209,621.895874 888.657227,607.841187 890.627197,593.566406 
	C893.242249,574.617432 896.347961,555.736389 899.183105,536.817200 
	C899.424194,535.208374 899.215027,533.531982 899.215027,530.731995 
	C897.644714,532.706116 896.640442,533.877686 895.734436,535.120911 
	C875.133728,563.389404 854.753967,591.823181 833.793030,619.821899 
	C828.985901,626.243103 822.794678,632.058044 816.177917,636.606201 
	C801.863037,646.445984 786.929321,641.285645 780.817627,624.987610 
	C775.241333,610.117126 774.718567,594.773987 777.530273,579.242981 
	C783.759094,544.836426 799.101990,513.997742 815.152283,483.460022 
	C829.301697,456.538971 848.595459,433.356262 868.852844,410.965942 
	C883.158264,395.154205 897.962891,379.794250 912.539795,364.227997 
	C913.420410,363.287567 914.257507,362.306396 916.007568,360.342316 
	C903.070007,351.732697 890.825806,342.838837 877.883179,335.115448 
	C843.256226,314.452301 805.535889,302.557343 765.729675,296.839325 
	C737.786987,292.825470 709.702454,291.262329 681.526489,292.196472 
	C657.913086,292.979370 635.133667,298.124176 613.280090,307.217651 
	C617.014343,311.093292 620.511536,314.853912 624.146912,318.475891 
	C664.316345,358.497498 694.768616,404.690063 712.237915,458.868683 
	C723.913879,495.080231 726.631104,532.189941 721.279724,569.901794 
	C718.328369,590.700073 715.153076,611.487793 706.125916,630.660645 
	C702.564148,638.225586 697.995850,645.721619 692.339111,651.812439 
	C679.761353,665.355408 661.421753,664.574158 648.831116,650.928589 
	C637.822693,638.997803 631.149414,624.536621 627.188538,609.195251 
	C622.835754,592.335571 620.369263,574.991272 617.009644,557.872131 
	C612.028992,532.492859 603.341675,508.531067 589.523743,486.551666 
	C586.270752,481.377350 581.155640,480.593262 577.032959,485.262207 
	C574.573547,488.047516 572.295471,491.554077 571.441589,495.099091 
	C567.668396,510.764374 564.235107,526.519775 561.061279,542.319336 
	C555.128296,571.854065 549.512390,601.470093 536.921082,629.127808 
	C532.052551,639.821777 526.028137,649.769653 515.746582,656.860474 
M488.154327,537.610291 
	C487.637146,556.204712 487.303375,574.826660 490.288574,593.246765 
	C492.451050,606.590332 495.499664,619.789001 498.066925,633.068970 
	C498.801849,636.870605 500.863556,636.730347 503.425690,635.094971 
	C504.496368,634.411621 505.351318,633.352783 506.210815,632.381897 
	C514.140137,623.424561 517.788330,612.204956 520.781189,601.167053 
	C526.927185,578.500000 531.842773,555.497131 537.148987,532.605591 
	C540.838135,516.690247 543.967224,500.635193 548.056030,484.826080 
	C550.453735,475.555542 555.316284,467.397552 563.773621,462.003204 
	C575.819458,454.320160 588.726562,457.610718 601.414124,459.282196 
	C603.977539,459.619934 606.540283,461.476807 608.692444,463.158966 
	C617.679810,470.183258 622.325989,480.061066 624.958008,490.706848 
	C628.486755,504.980072 631.130859,519.471375 634.190491,533.861389 
	C636.808350,546.173706 639.297180,558.517212 642.164307,570.771790 
	C646.510498,589.348450 651.364502,607.800110 660.265625,624.840881 
	C662.085022,628.323975 664.540466,631.607361 667.261780,634.447083 
	C669.669495,636.959534 672.724243,637.050354 674.681885,633.497314 
	C679.884949,624.054199 686.008728,614.958008 689.928772,605.000488 
	C699.228821,581.377014 698.233765,556.585022 696.293762,531.798157 
	C694.343689,506.882782 688.543091,482.801849 680.707947,459.199402 
	C668.268616,421.727356 648.543091,388.004791 626.156860,355.770966 
	C616.635193,342.060730 604.336304,331.158936 589.887634,322.658203 
	C586.861816,320.877960 584.684937,320.939850 581.714111,322.634277 
	C563.594543,332.968964 550.998413,348.398956 540.871521,366.191315 
	C517.346802,407.522644 499.645386,451.011932 492.495911,498.306274 
	C490.575195,511.011810 489.595734,523.859619 488.154327,537.610291 
M1148.321899,378.364075 
	C1146.805664,368.730194 1142.201416,361.297302 1134.243896,355.276184 
	C1108.367310,335.696655 1079.059937,330.671844 1047.779175,334.374725 
	C1018.194702,337.876831 990.675537,348.072968 964.434814,361.913147 
	C962.906128,362.719452 961.475342,363.711365 959.766052,364.759766 
	C960.665710,365.576141 961.100098,366.072479 961.627014,366.433838 
	C986.319458,383.365448 1010.602600,400.940308 1035.840088,417.017059 
	C1059.715210,432.225922 1086.357544,438.804901 1114.834717,437.079620 
	C1131.214600,436.087311 1142.604248,427.135925 1147.058105,411.278076 
	C1150.020020,400.732849 1150.662842,390.000519 1148.321899,378.364075 
M113.168747,345.144531 
	C103.855309,344.773590 94.540901,344.075104 85.228653,344.102936 
	C68.190079,344.153839 56.561653,352.502808 50.377338,368.294464 
	C44.931244,382.201019 44.439510,396.567200 47.607994,411.000397 
	C49.880798,421.353546 55.958328,429.149506 65.796234,433.395172 
	C74.634888,437.209534 83.966042,438.624420 93.614021,437.450043 
	C106.730179,435.853424 118.690002,431.053802 129.968552,424.375427 
	C142.143112,417.166473 154.267105,409.871887 166.460052,402.694336 
	C177.732330,396.058746 187.955917,388.124207 196.823212,378.494141 
	C199.357742,375.741638 201.707916,372.819366 204.314590,369.774017 
	C190.489365,361.512024 176.601273,354.939819 161.449585,352.099060 
	C145.784195,349.162018 129.885056,347.471771 113.168747,345.144531 
z"/>
</g>
</svg>