<svg version="1.1" xmlns="http://www.w3.org/2000/svg" 
     width="100%" 
     viewBox="140 655 890 160" 
     xml:space="preserve">
  
<g stroke="none">
<path fill="#25A9B5" opacity="1.000000" stroke="none" 
	d="
M204.663406,721.348999 
	C207.713776,725.470093 210.527679,729.327332 213.341599,733.184631 
	C202.921860,732.279053 193.349762,729.903381 185.977386,722.832031 
	C184.446304,721.363464 184.287521,717.203613 185.106689,714.842773 
	C186.314758,711.361145 190.199066,710.579773 193.112549,712.298645 
	C197.191986,714.705444 200.683762,718.108398 204.663406,721.348999 
z"/>
<path fill="#25A9B5" opacity="1.000000" stroke="none" 
	d="
M181.864441,748.877136 
	C175.985397,749.068176 170.533386,749.476196 165.108521,749.245667 
	C162.103439,749.117859 159.157639,747.873657 158.901642,744.023865 
	C158.630066,739.939758 161.178116,737.323120 164.612885,737.081665 
	C171.808960,736.575989 179.147690,736.341064 186.280045,737.209229 
	C192.707657,737.991577 198.938110,740.393860 205.255524,742.081665 
	C205.241531,742.637756 205.227524,743.193909 205.213531,743.750061 
	C197.576630,745.442505 189.939728,747.134949 181.864441,748.877136 
z"/>
<path fill="#23A8B5" opacity="1.000000" stroke="none" 
	d="
M208.898102,759.927246 
	C203.542694,765.296143 198.629990,770.682922 193.028366,775.218872 
	C191.523987,776.437134 187.415298,775.869568 185.445007,774.626831 
	C183.885895,773.643372 182.933548,770.241943 183.258057,768.154663 
	C183.557953,766.225769 185.562592,763.879089 187.423813,762.994629 
	C195.285110,759.259277 203.373276,756.001343 211.378479,752.568787 
	C211.782349,753.093872 212.186203,753.619019 212.590073,754.144104 
	C211.420792,755.971375 210.251495,757.798584 208.898102,759.927246 
z"/>
  <path fill="#22A7B4" opacity="1.000000" stroke="none" 
	d="
M262.444031,783.663025 
	C268.398590,779.517212 274.006195,775.534119 279.879242,771.362549 
	C281.555237,774.108643 281.680023,776.986511 279.326263,780.053711 
	C271.888519,789.745850 261.129028,792.397644 249.915359,793.808228 
	C245.156372,794.406860 240.268951,793.902100 235.458649,794.200684 
	C231.483383,794.447388 229.487000,792.561523 229.009308,788.925537 
	C227.710587,779.040649 225.853683,769.166199 225.455215,759.237915 
	C224.313309,730.786438 223.813553,702.321472 227.893509,673.986389 
	C228.601303,669.070740 230.673447,666.959167 235.621201,667.011780 
	C247.438339,667.137573 259.258209,667.067932 271.076477,666.993408 
	C276.088013,666.961853 279.029449,668.820984 278.476196,674.576355 
	C267.168854,674.576355 255.840668,674.576355 244.149170,674.576355 
	C243.500961,682.995361 242.598389,691.249817 242.286072,699.526611 
	C241.708633,714.829346 241.609543,730.150146 241.027695,745.452637 
	C240.829971,750.652954 242.836899,751.915955 247.763412,751.634949 
	C255.543930,751.191223 263.368317,751.516846 271.500397,751.516846 
	C271.613464,755.443542 270.093262,757.855713 265.610657,757.834656 
	C257.970306,757.798706 250.329651,757.824707 241.769989,757.824707 
	C242.300522,768.025024 242.794586,777.524170 243.366791,788.525391 
	C250.092667,786.837830 256.094879,785.331787 262.444031,783.663025 
z"/>
<path fill="#21A7B4" opacity="1.000000" stroke="none" 
	d="
M307.972839,727.972534 
	C309.569885,725.510864 311.012238,722.930542 312.792053,720.608948 
	C318.883667,712.663208 328.029236,712.650085 332.634186,721.433838 
	C335.862610,727.591919 336.979370,734.865173 338.951691,741.665833 
	C339.293213,742.843323 339.198486,744.147339 339.374969,746.206543 
	C340.681213,737.992554 341.812805,730.612854 343.055511,723.251831 
	C343.357849,721.460938 343.942780,719.703125 344.539490,717.979126 
	C347.342834,709.879822 350.153412,707.745300 357.368958,708.130249 
	C365.299103,708.553284 370.458374,712.607117 372.103882,719.880554 
	C372.577789,721.975403 372.890442,724.149780 372.927765,726.293762 
	C373.304443,747.938110 373.559174,769.584778 373.992340,791.227905 
	C374.049561,794.087219 372.947021,794.911682 370.344635,795.305664 
	C361.292603,796.675842 357.158905,793.307617 357.019501,784.262085 
	C356.721924,764.952271 356.454529,745.641235 355.978119,726.335571 
	C355.909485,723.555725 354.750732,720.802795 354.096466,718.037415 
	C353.342194,717.979065 352.587921,717.920715 351.833679,717.862305 
	C350.547058,722.476929 348.669708,727.018921 348.092194,731.720581 
	C346.733795,742.780029 345.813629,753.903381 345.066345,765.024414 
	C344.492950,773.558044 335.496796,778.525208 328.169403,773.824890 
	C327.060852,773.113770 326.674255,770.757141 326.549164,769.116272 
	C325.639740,757.188293 325.006042,745.238220 323.983246,733.320984 
	C323.754059,730.650513 322.331299,728.082581 321.458038,725.467407 
	C320.882477,725.249451 320.306885,725.031494 319.731323,724.813538 
	C317.770935,727.392395 315.141602,729.699097 313.962738,732.596008 
	C307.988129,747.277405 305.561707,762.634033 306.333862,778.476257 
	C306.528442,782.468872 306.625458,786.480957 307.121124,790.439697 
	C307.525269,793.667725 306.026031,794.611511 303.239807,794.686279 
	C296.730469,794.860901 292.837128,793.460754 292.699554,786.708862 
	C292.289734,766.588318 291.457947,746.476746 290.867859,726.359375 
	C290.750793,722.367615 291.014069,718.365967 291.030792,714.368530 
	C291.045044,710.963318 290.757355,707.594849 295.567139,706.983032 
	C301.625732,706.212280 306.123596,708.083801 307.345642,712.799438 
	C307.994324,715.302490 307.706848,718.062317 307.736664,720.707336 
	C307.761047,722.868408 307.629272,725.031250 307.525452,727.628662 
	C307.481201,728.483765 307.478149,728.903503 307.475098,729.323303 
	C307.641022,728.873047 307.806915,728.422791 307.972839,727.972534 
z"/>
  <path fill="#22A7B4" opacity="1.000000" stroke="none" 
	d="
M398.208466,807.606140 
	C398.493225,811.892273 398.563049,815.737793 399.086517,819.520447 
	C399.604919,823.266418 397.958160,824.143372 394.611725,824.047363 
	C387.710175,823.849304 385.222961,822.104675 385.110809,814.812683 
	C384.709564,788.716858 384.588104,762.614685 384.631042,736.515320 
	C384.645264,727.875793 385.482361,719.238037 385.930481,710.598755 
	C386.204468,705.315979 388.483337,703.690857 395.104492,704.091675 
	C400.373474,704.410706 402.977509,707.062439 402.672058,711.894531 
	C402.557281,713.710083 402.271973,715.514771 402.064392,717.324402 
	C402.507080,717.725769 402.949768,718.127197 403.392456,718.528564 
	C403.812714,717.562622 404.070190,716.477295 404.677612,715.648560 
	C413.942841,703.008972 427.592712,708.326050 433.029419,717.695557 
	C435.633209,722.182861 437.593658,727.432922 438.311584,732.552673 
	C440.546448,748.489990 439.526337,764.134888 430.872070,778.377014 
	C427.887695,783.288330 424.057831,787.299988 418.273773,789.083618 
	C410.913361,791.353333 405.244110,789.162292 400.885559,783.018433 
	C400.452576,782.408081 400.009399,781.804993 399.570953,781.198547 
	C399.111420,781.284119 398.651855,781.369751 398.192291,781.455322 
	C398.192291,790.016174 398.192291,798.577087 398.208466,807.606140 
M423.804474,727.071899 
	C423.211273,724.824829 422.820496,722.499329 421.985565,720.345947 
	C419.784241,714.668579 416.140625,713.609131 411.701599,717.831360 
	C409.005737,720.395447 406.753937,723.690735 405.111420,727.052734 
	C397.567505,742.494141 398.606354,758.295593 403.997223,774.072144 
	C405.367554,778.082520 406.742249,783.279724 411.941315,783.087280 
	C416.894836,782.903748 417.718445,777.624268 418.944183,773.799866 
	C423.724457,758.884766 424.975739,743.540222 423.804474,727.071899 
z"/>
  <path fill="#23A8B5" opacity="1.000000" stroke="none" 
	d="
M464.872742,760.015076 
	C464.603943,769.584656 464.367828,778.714111 464.170227,787.844299 
	C464.111847,790.540161 466.249115,794.060852 461.126678,794.596436 
	C455.948578,795.137817 452.141754,793.268555 451.284058,789.117188 
	C450.680420,786.195618 450.243164,783.187744 450.197235,780.211182 
	C449.855530,758.078918 449.677856,735.944153 449.330383,713.812012 
	C449.256531,709.108093 450.805542,706.649231 455.933380,706.842041 
	C461.855865,707.064758 464.937225,709.255981 465.110382,714.343384 
	C465.268005,718.973694 465.143799,723.613586 465.143799,728.836548 
	C467.137756,725.572266 468.658386,722.513489 470.702454,719.857605 
	C474.700165,714.663330 480.037750,713.088379 484.692444,715.329651 
	C489.050598,717.428101 492.720703,724.759827 491.468170,729.811829 
	C490.342621,734.351501 486.703461,736.241211 481.696228,737.283813 
	C481.469574,735.078308 481.555634,733.103394 481.010315,731.321716 
	C480.330872,729.102112 479.130554,727.041870 478.155151,724.912842 
	C476.219818,726.497986 473.242706,727.717896 472.535889,729.733826 
	C469.963257,737.071472 468.080658,744.657043 466.090149,752.189392 
	C465.456573,754.586914 465.296783,757.109741 464.872742,760.015076 
z"/>
<path fill="#23A8B5" opacity="1.000000" stroke="none" 
	d="
M500.150635,784.743591 
	C495.465485,776.842896 494.799683,768.465332 494.870087,759.905457 
	C494.992126,745.071533 497.144623,730.706909 504.944824,717.758423 
	C508.924957,711.151367 514.217102,706.118774 522.378540,704.958984 
	C528.669312,704.065125 533.054016,706.017639 534.707642,712.061035 
	C535.863220,716.284729 536.368835,721.041565 535.686768,725.324951 
	C534.786255,730.979675 533.043762,736.693176 530.572693,741.859924 
	C526.836365,749.672119 520.978699,755.468384 511.245026,756.140625 
	C511.245026,764.563965 510.816559,772.858643 511.393066,781.082886 
	C511.788666,786.725891 515.584961,788.325989 519.432312,784.204834 
	C523.965454,779.349121 527.307922,773.292847 530.675476,767.473022 
	C532.544373,764.243286 533.411804,760.434082 534.730530,756.886047 
	C535.277405,756.755493 535.824280,756.624939 536.371155,756.494324 
	C536.980652,758.678589 538.492188,761.071594 538.043274,763.010864 
	C536.119629,771.320801 532.818054,779.028503 527.033081,785.600586 
	C520.014099,793.574707 507.738281,794.809753 500.150635,784.743591 
M528.765503,716.311096 
	C525.818115,713.054016 524.003418,713.185120 521.450073,717.623962 
	C515.920471,727.236755 514.164490,738.017395 511.929871,748.844604 
	C521.930542,747.238647 530.218872,731.423035 528.765503,716.311096 
z"/>
  <path fill="#22A8B4" opacity="1.000000" stroke="none" 
	d="
M586.625610,734.550476 
	C586.155151,730.797302 585.976135,727.445862 585.224121,724.228271 
	C584.900574,722.843872 583.597534,721.189392 582.338684,720.710083 
	C581.584473,720.422852 579.532471,721.908569 578.963196,723.047180 
	C576.149048,728.675354 573.026672,734.260193 571.132874,740.216370 
	C566.085083,756.092163 561.599487,772.147339 563.319824,789.146973 
	C563.365051,789.593689 563.023193,790.079590 562.749573,790.872681 
	C561.048401,791.016541 559.244446,791.327271 557.447144,791.292480 
	C551.239258,791.172058 549.144775,789.784973 548.955566,783.624390 
	C548.204712,759.170715 547.855469,734.704834 547.331665,710.244019 
	C547.264343,707.103943 549.045471,705.846008 551.824646,705.297241 
	C559.849915,703.712830 564.286560,707.356201 564.100586,715.277283 
	C563.973755,720.679138 564.076355,726.086304 564.076355,731.522949 
	C567.257324,726.401489 570.192566,721.077637 573.715515,716.176086 
	C577.061890,711.520203 581.934692,708.711426 587.563232,711.302917 
	C590.787170,712.787231 594.608582,715.746460 595.571716,718.846191 
	C598.404663,727.964172 600.906982,737.396790 601.765442,746.866943 
	C603.071106,761.270325 602.909180,775.808105 603.285278,790.291077 
	C603.311951,791.315430 602.747375,793.197449 602.275391,793.257996 
	C598.763794,793.708069 595.168884,794.206482 591.673401,793.887146 
	C588.161377,793.566223 587.534180,790.407776 587.433533,787.473877 
	C587.182251,780.150085 587.006836,772.822327 586.913208,765.494751 
	C586.783325,755.332642 586.756042,745.169250 586.625610,734.550476 
z"/>
<path fill="#22A8B4" opacity="1.000000" stroke="none" 
	d="
M618.047302,728.150757 
	C620.907898,724.060181 623.178223,719.826355 626.496460,716.707336 
	C633.494446,710.129578 639.278931,709.497192 651.477722,712.896118 
	C651.621399,710.874573 651.789917,708.953064 651.889526,707.027954 
	C652.551880,694.228760 653.331299,681.433411 653.771118,668.626465 
	C653.901917,664.819458 655.504578,663.530884 658.945923,663.878662 
	C661.567566,664.143494 664.307190,664.163330 666.757874,664.991638 
	C670.877197,666.384033 671.711243,669.734253 671.343933,673.846558 
	C667.980469,711.500183 665.413147,749.195190 666.048096,787.037354 
	C666.081604,789.035034 666.370605,791.055298 666.157043,793.023438 
	C665.885620,795.525452 668.832581,799.312378 663.555908,800.029907 
	C658.131042,800.767578 654.368896,798.908142 653.472107,794.291687 
	C652.682922,790.229309 652.594849,786.029175 652.226685,781.887329 
	C652.102539,780.489685 652.068970,779.083984 651.925354,776.398804 
	C650.502380,778.917053 649.752747,780.318237 648.935303,781.678650 
	C641.797791,793.556458 626.274902,794.104736 619.215576,782.104980 
	C616.043945,776.713806 614.116821,770.082092 613.470032,763.822693 
	C612.233459,751.856018 613.298828,739.882996 618.047302,728.150757 
M651.288574,754.018860 
	C651.160095,745.540527 651.179260,737.055847 650.814453,728.587708 
	C650.702820,725.996948 649.860779,723.306458 648.787903,720.915283 
	C646.461060,715.729309 641.578613,715.228577 638.326843,719.861633 
	C636.630554,722.278442 635.193970,725.022461 634.293274,727.828430 
	C629.611328,742.414612 628.066895,757.426331 629.135071,772.668518 
	C629.338074,775.565125 630.383850,778.557312 631.685486,781.186218 
	C633.659241,785.172485 636.858582,785.881958 640.225525,783.031555 
	C642.318176,781.259949 644.463013,778.915466 645.288330,776.402466 
	C647.608582,769.336792 649.257690,762.050781 651.288574,754.018860 
z"/>
  <path fill="#25A9B5" opacity="1.000000" stroke="none" 
	d="
M696.531677,702.340149 
	C697.454041,703.959167 698.057617,705.368774 698.661255,706.778442 
	C697.206299,707.329773 695.734680,708.369263 694.300171,708.320374 
	C692.025391,708.242737 689.607178,707.789673 687.572937,706.818481 
	C686.169128,706.148315 685.310669,704.335693 684.208557,703.033630 
	C685.812561,702.139587 687.403076,700.547729 689.023682,700.516418 
	C691.408813,700.470459 693.815491,701.537720 696.531677,702.340149 
z"/>
<path fill="#23A8B5" opacity="1.000000" stroke="none" 
	d="
M686.393860,785.438904 
	C684.628784,774.785828 682.331482,764.507202 681.682617,754.125610 
	C680.895020,741.525269 681.524414,728.837891 681.485352,716.188354 
	C681.472961,712.158386 683.235596,710.685608 687.334534,710.870667 
	C696.466309,711.283081 699.123779,714.331421 698.899231,723.658325 
	C698.415039,743.774109 698.254333,763.897644 697.889404,784.016663 
	C697.855896,785.867126 697.596863,789.159668 696.942505,789.291016 
	C694.664246,789.748352 692.078918,789.415527 689.785950,788.764465 
	C688.538330,788.410217 687.645142,786.807434 686.393860,785.438904 
z"/>
<path fill="#23A8B5" opacity="1.000000" stroke="none" 
	d="
M711.182068,765.678101 
	C710.965332,748.718933 712.590210,732.576294 721.201721,717.998840 
	C725.122498,711.361694 730.383484,706.259583 738.522095,704.991821 
	C745.322571,703.932434 749.804504,706.591309 751.715027,713.155396 
	C755.189575,725.093140 748.902649,744.622070 738.788818,752.016174 
	C735.810852,754.193481 732.018738,755.257202 727.916992,757.145569 
	C727.916992,764.843018 727.554810,773.418823 728.064392,781.942505 
	C728.333618,786.446899 731.449158,787.684509 735.069824,784.906433 
	C738.025269,782.638794 740.824036,779.693909 742.589233,776.449158 
	C745.982178,770.212341 748.593750,763.550354 752.740662,756.516907 
	C753.401062,758.687622 755.134827,761.233826 754.530212,762.961914 
	C752.296509,769.346130 749.905823,775.834534 746.413513,781.577942 
	C742.304199,788.336365 736.426514,793.327637 727.471191,791.686279 
	C717.423157,789.844788 714.218384,782.161865 712.238464,773.554016 
	C711.681580,771.132568 711.535095,768.616760 711.182068,765.678101 
M741.100464,714.326660 
	C731.681702,723.879150 731.534851,736.670410 728.079529,749.576294 
	C730.439392,748.646851 731.690063,748.338623 732.748291,747.707642 
	C739.971313,743.401062 747.518188,726.505615 745.595947,718.279419 
	C745.218811,716.665710 743.126587,715.452759 741.100464,714.326660 
z"/>
<path fill="#23A8B5" opacity="1.000000" stroke="none" 
	d="
M818.913940,758.023132 
	C819.219482,768.996826 819.614197,779.473938 819.696167,789.953491 
	C819.706665,791.303345 818.403442,793.380188 817.185303,793.904846 
	C810.033813,796.985107 804.134888,793.529236 803.904846,785.878296 
	C803.414185,769.564453 803.378540,753.237366 803.009583,736.919067 
	C802.916016,732.776550 802.467468,728.613098 801.772400,724.529053 
	C801.532776,723.121033 800.232056,721.131348 799.078735,720.864258 
	C798.011841,720.617249 795.819763,722.015808 795.283875,723.210388 
	C791.826965,730.916016 787.942627,738.549255 785.614563,746.614990 
	C781.797974,759.837708 777.945190,773.225891 779.827332,787.316223 
	C780.218872,790.247803 778.874451,791.018372 776.233948,791.273621 
	C768.406616,792.030334 765.268982,789.907043 765.073364,781.992188 
	C764.485107,758.198914 764.323792,734.395386 763.858521,710.598511 
	C763.791260,707.159668 765.388489,705.846863 768.395569,705.280396 
	C776.703369,703.715393 781.224365,707.642090 780.633972,715.869568 
	C780.243408,721.312317 780.015564,726.766785 779.677429,732.896545 
	C783.572510,726.674683 786.604797,720.786560 790.621704,715.671753 
	C795.985413,708.841858 803.642090,708.540894 809.082214,714.587585 
	C811.243774,716.990173 813.394592,720.025818 814.008240,723.082825 
	C815.996643,732.987793 817.294556,743.032471 818.792725,753.033264 
	C819.013062,754.503967 818.877319,756.028015 818.913940,758.023132 
z"/>

<path fill="#22A7B4" opacity="1.000000" stroke="none" 
	d="
M870.045349,670.111938 
	C870.565002,663.778748 870.965759,663.496887 878.285522,663.874634 
	C884.901855,664.216187 888.243408,667.116638 887.876831,672.753052 
	C887.282959,681.883850 886.007751,690.981384 885.682556,700.116577 
	C884.575928,731.208740 883.794495,762.312256 882.759644,793.407227 
	C882.681824,795.745789 884.975464,799.362366 880.101196,800.039062 
	C874.670105,800.793091 870.927673,798.954956 869.978943,794.414856 
	C869.336670,791.341553 869.258972,788.147766 868.970276,785.004028 
	C868.762085,782.737549 868.622314,780.464783 868.370361,777.108215 
	C867.168945,778.830078 866.567200,779.551697 866.118225,780.358276 
	C862.696411,786.505615 858.318787,791.300049 850.517700,790.726501 
	C841.849670,790.089294 835.797485,785.552307 832.940002,777.422852 
	C827.487793,761.911438 828.612122,746.289368 833.546021,730.933350 
	C834.877380,726.789551 837.399048,722.752991 840.259277,719.428406 
	C848.110168,710.302917 856.533569,708.600586 867.760559,713.286194 
	C868.519409,698.979004 869.273010,684.772095 870.045349,670.111938 
M867.870911,735.722900 
	C867.173035,731.132568 866.943848,726.395508 865.573181,722.015686 
	C864.919434,719.926880 862.285706,717.504272 860.196899,717.113647 
	C858.463562,716.789429 855.798096,718.850403 854.308167,720.530945 
	C852.719971,722.322327 851.512878,724.802979 851.032410,727.164368 
	C848.917053,737.559937 846.496216,747.958252 845.443054,758.481445 
	C844.779480,765.110535 845.538818,772.155273 847.112000,778.662598 
	C848.889465,786.014893 854.322510,786.884521 858.887756,780.761658 
	C861.596191,777.128967 863.358215,772.632996 864.856995,768.287598 
	C868.391113,758.040833 868.182678,747.342651 867.870911,735.722900 
z"/>
<path fill="#23A8B5" opacity="1.000000" stroke="none" 
	d="
M908.801025,714.928955 
	C913.364929,703.672363 923.347961,701.655518 932.456787,709.889282 
	C940.068726,716.769897 943.205139,725.837158 943.910034,735.692261 
	C944.428711,742.944641 944.011780,750.264038 944.011780,757.929138 
	C945.850891,757.838928 947.572021,757.754517 949.293213,757.670105 
	C949.632141,757.966614 949.971069,758.263123 950.309998,758.559570 
	C948.624207,760.391113 946.926758,762.212036 945.256165,764.057251 
	C943.848694,765.611755 941.827209,766.972534 941.197205,768.804199 
	C938.832886,775.677063 936.009766,782.273621 930.162476,786.839355 
	C918.142090,796.225281 898.520386,793.389099 893.116516,771.817261 
	C889.433533,757.115295 891.090332,742.695068 896.256836,728.704407 
	C897.967957,724.070984 900.001099,718.827942 906.688721,718.746643 
	C907.369629,718.738342 908.023621,716.506653 908.801025,714.928955 
M932.150635,764.412903 
	C920.002930,761.575195 914.517029,752.014587 909.598938,741.720337 
	C908.756470,746.190918 908.082092,750.436584 907.945007,754.699585 
	C907.773926,760.016235 907.795044,765.367126 908.215942,770.664856 
	C908.489258,774.105469 909.270935,777.605774 910.448730,780.853088 
	C912.709290,787.085449 917.532410,788.401733 922.523865,784.149048 
	C928.409363,779.134705 931.868530,772.666321 932.150635,764.412903 
M935.704224,743.784546 
	C935.468872,741.138672 935.713074,738.335327 934.905945,735.877197 
	C932.712463,729.197449 930.463013,722.471680 927.363770,716.194702 
	C926.485596,714.416138 922.516479,713.232422 920.151062,713.489380 
	C918.854797,713.630188 917.168213,717.286865 916.997253,719.463318 
	C916.202148,729.589966 918.400879,739.278625 922.826782,748.367981 
	C925.203674,753.249268 929.064819,756.680237 934.981018,758.173340 
	C935.249756,753.285156 935.485962,748.987122 935.704224,743.784546 
z"/>
<path fill="#25A9B5" opacity="1.000000" stroke="none" 
	d="
M981.561768,711.745667 
	C988.171997,715.386902 989.043823,721.055054 982.975830,724.482056 
	C975.149963,728.901917 966.557495,731.964417 957.738342,734.679138 
	C963.717896,724.841797 968.244385,713.876038 981.561768,711.745667 
z"/>
<path fill="#25A9B5" opacity="1.000000" stroke="none" 
	d="
M1009.949036,739.090088 
	C1013.189758,744.841980 1012.104187,748.395020 1006.202271,749.026733 
	C1000.036987,749.686523 993.635925,749.355835 987.471619,748.497986 
	C980.131592,747.476440 972.933716,745.433167 964.381592,743.547485 
	C966.577332,742.380005 967.575623,741.675720 968.684448,741.286682 
	C978.928101,737.693054 989.403198,735.154907 1000.337219,736.029602 
	C1003.505127,736.283142 1006.567810,737.852295 1009.949036,739.090088 
z"/>
<path fill="#23A8B5" opacity="1.000000" stroke="none" 
	d="
M976.913574,775.160522 
	C968.315979,770.041870 963.259338,762.272156 957.384216,753.232788 
	C968.189392,755.807556 977.701965,758.040894 985.456970,764.633423 
	C988.139099,766.913391 988.730347,770.051453 986.792175,773.183533 
	C984.399658,777.049927 980.987244,777.096741 976.913574,775.160522 
z"/>
</g>
</svg>