<svg version="1.1" xmlns="http://www.w3.org/2000/svg" 
     width="100%" 
     viewBox="0 45 1200 1200" 
     xml:space="preserve">
  
<g stroke="none">
<path fill="#985C91" opacity="1.000000" stroke="none" 
	d="
M136.458923,253.381195 
	C133.743347,220.614960 153.257217,193.516052 183.920685,186.882019 
	C216.499008,179.833664 248.694138,200.848404 255.734650,233.757172 
	C262.607697,265.883087 241.139679,298.433228 208.721191,305.039703 
	C174.254990,312.063477 141.881439,289.081512 136.458923,253.381195 
M222.429031,269.910858 
	C223.262711,268.872681 224.137268,267.864502 224.923859,266.791840 
	C234.295135,254.012421 234.128815,237.164810 224.520874,224.474503 
	C215.305786,212.303070 198.838120,207.561966 184.174057,212.858536 
	C169.771942,218.060501 159.987625,232.585114 161.175507,247.923477 
	C162.301315,262.460510 169.642441,273.201630 183.277817,278.558990 
	C197.653839,284.207367 210.720169,281.096619 222.429031,269.910858 
z"/>
<path fill="#985D91" opacity="1.000000" stroke="none" 
	d="
M532.024536,165.075348 
	C555.176880,124.339638 608.374634,120.730286 635.206970,157.740341 
	C660.932861,193.224319 639.209595,245.447968 595.987244,252.026093 
	C558.892395,257.671661 526.747192,231.300461 525.367310,193.824310 
	C525.001526,183.889847 527.213135,174.314407 532.024536,165.075348 
M550.659180,193.447998 
	C550.682556,193.947052 550.696960,194.446732 550.730591,194.945084 
	C552.104065,215.314392 570.528748,230.671494 590.080139,227.744873 
	C611.467651,224.543396 625.020569,205.086960 620.169373,184.549042 
	C616.168640,167.611435 599.837097,155.511154 583.323181,157.249084 
	C564.171875,159.264542 551.479553,172.959641 550.659180,193.447998 
z"/>
<path fill="#985C91" opacity="1.000000" stroke="none" 
	d="
M927.318237,282.660370 
	C900.346069,245.136566 919.724609,195.389969 964.447876,186.488937 
	C997.822510,179.846542 1031.603027,205.126358 1035.190552,238.553268 
	C1038.094360,265.611633 1022.740417,291.808533 998.027405,301.907104 
	C973.144226,312.075256 945.708008,304.733704 927.318237,282.660370 
M979.124512,280.996399 
	C980.754028,280.682617 982.401978,280.443085 984.010193,280.043610 
	C999.473145,276.202576 1010.176208,262.548096 1010.635986,246.116150 
	C1011.048645,231.368347 1000.314575,216.683899 985.849487,212.207581 
	C970.860352,207.569107 954.356873,213.309875 945.912842,226.308289 
	C938.151306,238.256058 937.590698,250.812698 944.516235,263.146057 
	C951.787537,276.095276 963.395691,281.827850 979.124512,280.996399 
z"/>
<path fill="#985D91" opacity="1.000000" stroke="none" 
	d="
M515.746582,656.860474 
	C499.207764,666.876892 480.691650,659.641113 472.140930,640.788879 
	C466.840759,629.103271 464.751038,616.624939 463.382141,604.048706 
	C461.617310,587.834656 459.563080,571.592590 459.010773,555.315857 
	C456.055450,468.231323 484.743317,392.327209 541.089722,326.450470 
	C546.598694,320.009674 552.597961,313.988251 559.268921,306.803680 
	C548.005554,303.445709 537.398926,299.879791 526.580627,297.154144 
	C510.855103,293.192200 494.739288,292.418976 478.557739,291.790100 
	C429.136292,289.869293 381.331543,297.493896 335.121155,315.009583 
	C306.014465,326.042206 281.681854,343.947784 261.247437,367.294983 
	C260.829895,367.772064 260.520264,368.343597 260.250854,368.738342 
	C268.825684,375.322388 277.489502,381.482178 285.596710,388.303497 
	C301.896851,402.018372 315.379272,418.388184 327.588928,435.702850 
	C341.022522,454.753174 353.851471,474.236084 366.687653,493.699524 
	C376.113708,507.992126 381.834839,523.950623 387.146729,540.144531 
	C391.159943,552.379211 393.956696,564.726562 394.292175,577.560791 
	C394.695892,593.004456 395.778870,608.528809 391.190918,623.643677 
	C386.091064,640.445007 370.008575,646.969666 355.854340,636.716003 
	C347.381622,630.578247 339.815247,622.591431 333.494598,614.191833 
	C313.767365,587.976196 294.828369,561.167419 275.576843,534.593628 
	C274.804901,533.528076 273.962250,532.513794 271.984833,531.632751 
	C272.459442,536.374695 272.724518,541.148804 273.446167,545.852844 
	C276.069977,562.955383 279.175781,579.990662 281.456299,597.136902 
	C283.131134,609.729309 281.375854,622.114502 275.650940,633.618225 
	C266.975922,651.049744 248.969742,654.566040 235.553543,640.478271 
	C228.338226,632.901794 222.213745,623.717651 217.674789,614.261597 
	C199.853882,577.135254 187.950531,538.080933 182.344986,497.205658 
	C181.987900,494.601929 181.878510,491.812683 182.412125,489.268829 
	C183.647064,483.381653 189.284973,479.557037 195.462006,479.933929 
	C201.489120,480.301697 206.213348,484.832611 206.963898,491.122040 
	C211.581757,529.818726 223.144653,566.502747 239.275558,601.819946 
	C241.955841,607.688110 245.596161,613.127563 248.939713,618.676636 
	C249.822128,620.141174 251.252441,621.275635 252.962692,623.141602 
	C256.670990,615.018616 257.678162,607.408752 256.530304,599.549377 
	C254.270309,584.075500 251.265366,568.686157 249.666473,553.148865 
	C248.690369,543.663391 248.261337,533.647888 250.225754,524.433105 
	C254.193344,505.821808 268.263428,501.402344 283.483826,512.957825 
	C296.505615,522.844177 306.502777,535.585144 316.192291,548.533264 
	C330.163696,567.203247 343.841614,586.092773 357.791718,604.778931 
	C360.448975,608.338318 363.788239,611.388489 367.885040,615.838135 
	C368.706055,609.495911 369.568054,604.552612 369.952881,599.572510 
	C371.782135,575.899536 366.356995,553.634705 356.624146,532.229370 
	C328.920837,471.301819 287.502319,422.358307 230.217773,387.185944 
	C226.990982,385.204712 224.962341,385.364258 221.940842,387.532776 
	C198.261398,404.527374 174.542130,421.471100 150.616760,438.116608 
	C136.090988,448.222656 120.111649,455.384308 102.383705,457.344269 
	C82.457123,459.547272 63.108387,457.632782 45.943489,445.826324 
	C35.537800,438.669067 31.981293,427.891296 29.608444,416.088013 
	C25.825596,397.270844 26.434959,379.049561 34.269939,361.326599 
	C45.666534,335.547119 65.896202,322.215607 93.613609,321.171509 
	C139.431000,319.445618 183.444763,327.575897 224.754501,348.133575 
	C228.292648,349.894348 230.474640,349.659210 233.499435,347.150299 
	C276.955231,311.105133 325.859070,286.231171 381.590790,275.555267 
	C422.696625,267.681091 464.168365,264.768066 505.876495,268.289154 
	C532.638550,270.548462 558.040833,278.572388 582.213928,290.284027 
	C584.864319,291.568085 586.858276,291.597870 589.572693,290.289459 
	C622.022888,274.647095 656.207092,266.801605 692.334290,266.907806 
	C734.978210,267.033173 777.124817,270.646301 818.303345,282.406433 
	C863.048889,295.185242 902.694031,317.454865 938.201111,347.261658 
	C941.523499,350.050720 943.602661,349.549408 946.755920,347.568573 
	C979.099731,327.250854 1014.552612,316.507263 1052.443481,312.806641 
	C1081.919189,309.927917 1109.654907,314.893646 1134.895996,330.461121 
	C1160.794312,346.433838 1171.081299,370.638611 1169.302856,400.505981 
	C1168.479980,414.325165 1164.721191,427.041779 1155.424927,437.670532 
	C1144.256836,450.439484 1129.449585,455.894775 1113.211304,457.974182 
	C1078.216309,462.455566 1045.888062,454.767944 1016.833496,434.899353 
	C991.412415,417.515472 966.501038,399.382111 941.516846,381.368469 
	C938.528992,379.214172 936.803284,379.170074 933.892822,381.326843 
	C896.773376,408.833099 868.096069,443.816620 843.619385,482.583679 
	C829.001465,505.735901 816.076843,529.698730 807.393311,555.788452 
	C801.388306,573.830505 799.686462,592.174622 803.002747,610.936951 
	C803.146179,611.748474 803.346191,612.556946 803.609009,613.336792 
	C803.698730,613.603027 804.062378,613.776917 805.059814,614.680603 
	C808.739624,610.489319 812.712646,606.523865 816.041931,602.076538 
	C831.513611,581.409180 846.587280,560.440674 862.250061,539.920898 
	C871.030273,528.418030 880.226074,517.080994 893.272949,509.909454 
	C905.664673,503.098053 917.522095,507.606140 920.677490,521.501648 
	C922.703064,530.421875 923.257874,540.047424 922.412659,549.165894 
	C920.941162,565.040039 917.786865,580.753479 915.518433,596.560242 
	C914.262024,605.314697 914.250000,614.007202 919.013367,623.430786 
	C921.966919,619.383911 924.743774,616.324097 926.681824,612.802612 
	C939.271118,589.927795 948.137329,565.515015 954.774536,540.382446 
	C958.840149,524.987793 961.362793,509.173523 964.277100,493.491699 
	C965.860840,484.969391 969.284668,480.539032 975.817566,479.952240 
	C984.344971,479.186249 990.683350,485.997894 989.615234,494.801361 
	C986.212341,522.846924 979.536072,550.158386 969.550537,576.518616 
	C963.261597,593.120667 955.845032,609.352112 947.950745,625.261719 
	C944.789246,631.633301 939.665527,637.471130 934.252869,642.198486 
	C921.028137,653.748901 905.009216,650.404907 896.677307,634.886780 
	C889.702209,621.895874 888.657227,607.841187 890.627197,593.566406 
	C893.242249,574.617432 896.347961,555.736389 899.183105,536.817200 
	C899.424194,535.208374 899.215027,533.531982 899.215027,530.731995 
	C897.644714,532.706116 896.640442,533.877686 895.734436,535.120911 
	C875.133728,563.389404 854.753967,591.823181 833.793030,619.821899 
	C828.985901,626.243103 822.794678,632.058044 816.177917,636.606201 
	C801.863037,646.445984 786.929321,641.285645 780.817627,624.987610 
	C775.241333,610.117126 774.718567,594.773987 777.530273,579.242981 
	C783.759094,544.836426 799.101990,513.997742 815.152283,483.460022 
	C829.301697,456.538971 848.595459,433.356262 868.852844,410.965942 
	C883.158264,395.154205 897.962891,379.794250 912.539795,364.227997 
	C913.420410,363.287567 914.257507,362.306396 916.007568,360.342316 
	C903.070007,351.732697 890.825806,342.838837 877.883179,335.115448 
	C843.256226,314.452301 805.535889,302.557343 765.729675,296.839325 
	C737.786987,292.825470 709.702454,291.262329 681.526489,292.196472 
	C657.913086,292.979370 635.133667,298.124176 613.280090,307.217651 
	C617.014343,311.093292 620.511536,314.853912 624.146912,318.475891 
	C664.316345,358.497498 694.768616,404.690063 712.237915,458.868683 
	C723.913879,495.080231 726.631104,532.189941 721.279724,569.901794 
	C718.328369,590.700073 715.153076,611.487793 706.125916,630.660645 
	C702.564148,638.225586 697.995850,645.721619 692.339111,651.812439 
	C679.761353,665.355408 661.421753,664.574158 648.831116,650.928589 
	C637.822693,638.997803 631.149414,624.536621 627.188538,609.195251 
	C622.835754,592.335571 620.369263,574.991272 617.009644,557.872131 
	C612.028992,532.492859 603.341675,508.531067 589.523743,486.551666 
	C586.270752,481.377350 581.155640,480.593262 577.032959,485.262207 
	C574.573547,488.047516 572.295471,491.554077 571.441589,495.099091 
	C567.668396,510.764374 564.235107,526.519775 561.061279,542.319336 
	C555.128296,571.854065 549.512390,601.470093 536.921082,629.127808 
	C532.052551,639.821777 526.028137,649.769653 515.746582,656.860474 
M488.154327,537.610291 
	C487.637146,556.204712 487.303375,574.826660 490.288574,593.246765 
	C492.451050,606.590332 495.499664,619.789001 498.066925,633.068970 
	C498.801849,636.870605 500.863556,636.730347 503.425690,635.094971 
	C504.496368,634.411621 505.351318,633.352783 506.210815,632.381897 
	C514.140137,623.424561 517.788330,612.204956 520.781189,601.167053 
	C526.927185,578.500000 531.842773,555.497131 537.148987,532.605591 
	C540.838135,516.690247 543.967224,500.635193 548.056030,484.826080 
	C550.453735,475.555542 555.316284,467.397552 563.773621,462.003204 
	C575.819458,454.320160 588.726562,457.610718 601.414124,459.282196 
	C603.977539,459.619934 606.540283,461.476807 608.692444,463.158966 
	C617.679810,470.183258 622.325989,480.061066 624.958008,490.706848 
	C628.486755,504.980072 631.130859,519.471375 634.190491,533.861389 
	C636.808350,546.173706 639.297180,558.517212 642.164307,570.771790 
	C646.510498,589.348450 651.364502,607.800110 660.265625,624.840881 
	C662.085022,628.323975 664.540466,631.607361 667.261780,634.447083 
	C669.669495,636.959534 672.724243,637.050354 674.681885,633.497314 
	C679.884949,624.054199 686.008728,614.958008 689.928772,605.000488 
	C699.228821,581.377014 698.233765,556.585022 696.293762,531.798157 
	C694.343689,506.882782 688.543091,482.801849 680.707947,459.199402 
	C668.268616,421.727356 648.543091,388.004791 626.156860,355.770966 
	C616.635193,342.060730 604.336304,331.158936 589.887634,322.658203 
	C586.861816,320.877960 584.684937,320.939850 581.714111,322.634277 
	C563.594543,332.968964 550.998413,348.398956 540.871521,366.191315 
	C517.346802,407.522644 499.645386,451.011932 492.495911,498.306274 
	C490.575195,511.011810 489.595734,523.859619 488.154327,537.610291 
M1148.321899,378.364075 
	C1146.805664,368.730194 1142.201416,361.297302 1134.243896,355.276184 
	C1108.367310,335.696655 1079.059937,330.671844 1047.779175,334.374725 
	C1018.194702,337.876831 990.675537,348.072968 964.434814,361.913147 
	C962.906128,362.719452 961.475342,363.711365 959.766052,364.759766 
	C960.665710,365.576141 961.100098,366.072479 961.627014,366.433838 
	C986.319458,383.365448 1010.602600,400.940308 1035.840088,417.017059 
	C1059.715210,432.225922 1086.357544,438.804901 1114.834717,437.079620 
	C1131.214600,436.087311 1142.604248,427.135925 1147.058105,411.278076 
	C1150.020020,400.732849 1150.662842,390.000519 1148.321899,378.364075 
M113.168747,345.144531 
	C103.855309,344.773590 94.540901,344.075104 85.228653,344.102936 
	C68.190079,344.153839 56.561653,352.502808 50.377338,368.294464 
	C44.931244,382.201019 44.439510,396.567200 47.607994,411.000397 
	C49.880798,421.353546 55.958328,429.149506 65.796234,433.395172 
	C74.634888,437.209534 83.966042,438.624420 93.614021,437.450043 
	C106.730179,435.853424 118.690002,431.053802 129.968552,424.375427 
	C142.143112,417.166473 154.267105,409.871887 166.460052,402.694336 
	C177.732330,396.058746 187.955917,388.124207 196.823212,378.494141 
	C199.357742,375.741638 201.707916,372.819366 204.314590,369.774017 
	C190.489365,361.512024 176.601273,354.939819 161.449585,352.099060 
	C145.784195,349.162018 129.885056,347.471771 113.168747,345.144531 
z"/>

<path fill="#25A9B5" opacity="1.000000" stroke="none" 
	d="
M204.663406,721.348999 
	C207.713776,725.470093 210.527679,729.327332 213.341599,733.184631 
	C202.921860,732.279053 193.349762,729.903381 185.977386,722.832031 
	C184.446304,721.363464 184.287521,717.203613 185.106689,714.842773 
	C186.314758,711.361145 190.199066,710.579773 193.112549,712.298645 
	C197.191986,714.705444 200.683762,718.108398 204.663406,721.348999 
z"/>
<path fill="#25A9B5" opacity="1.000000" stroke="none" 
	d="
M181.864441,748.877136 
	C175.985397,749.068176 170.533386,749.476196 165.108521,749.245667 
	C162.103439,749.117859 159.157639,747.873657 158.901642,744.023865 
	C158.630066,739.939758 161.178116,737.323120 164.612885,737.081665 
	C171.808960,736.575989 179.147690,736.341064 186.280045,737.209229 
	C192.707657,737.991577 198.938110,740.393860 205.255524,742.081665 
	C205.241531,742.637756 205.227524,743.193909 205.213531,743.750061 
	C197.576630,745.442505 189.939728,747.134949 181.864441,748.877136 
z"/>
<path fill="#23A8B5" opacity="1.000000" stroke="none" 
	d="
M208.898102,759.927246 
	C203.542694,765.296143 198.629990,770.682922 193.028366,775.218872 
	C191.523987,776.437134 187.415298,775.869568 185.445007,774.626831 
	C183.885895,773.643372 182.933548,770.241943 183.258057,768.154663 
	C183.557953,766.225769 185.562592,763.879089 187.423813,762.994629 
	C195.285110,759.259277 203.373276,756.001343 211.378479,752.568787 
	C211.782349,753.093872 212.186203,753.619019 212.590073,754.144104 
	C211.420792,755.971375 210.251495,757.798584 208.898102,759.927246 
z"/>
  <path fill="#22A7B4" opacity="1.000000" stroke="none" 
	d="
M262.444031,783.663025 
	C268.398590,779.517212 274.006195,775.534119 279.879242,771.362549 
	C281.555237,774.108643 281.680023,776.986511 279.326263,780.053711 
	C271.888519,789.745850 261.129028,792.397644 249.915359,793.808228 
	C245.156372,794.406860 240.268951,793.902100 235.458649,794.200684 
	C231.483383,794.447388 229.487000,792.561523 229.009308,788.925537 
	C227.710587,779.040649 225.853683,769.166199 225.455215,759.237915 
	C224.313309,730.786438 223.813553,702.321472 227.893509,673.986389 
	C228.601303,669.070740 230.673447,666.959167 235.621201,667.011780 
	C247.438339,667.137573 259.258209,667.067932 271.076477,666.993408 
	C276.088013,666.961853 279.029449,668.820984 278.476196,674.576355 
	C267.168854,674.576355 255.840668,674.576355 244.149170,674.576355 
	C243.500961,682.995361 242.598389,691.249817 242.286072,699.526611 
	C241.708633,714.829346 241.609543,730.150146 241.027695,745.452637 
	C240.829971,750.652954 242.836899,751.915955 247.763412,751.634949 
	C255.543930,751.191223 263.368317,751.516846 271.500397,751.516846 
	C271.613464,755.443542 270.093262,757.855713 265.610657,757.834656 
	C257.970306,757.798706 250.329651,757.824707 241.769989,757.824707 
	C242.300522,768.025024 242.794586,777.524170 243.366791,788.525391 
	C250.092667,786.837830 256.094879,785.331787 262.444031,783.663025 
z"/>
<path fill="#21A7B4" opacity="1.000000" stroke="none" 
	d="
M307.972839,727.972534 
	C309.569885,725.510864 311.012238,722.930542 312.792053,720.608948 
	C318.883667,712.663208 328.029236,712.650085 332.634186,721.433838 
	C335.862610,727.591919 336.979370,734.865173 338.951691,741.665833 
	C339.293213,742.843323 339.198486,744.147339 339.374969,746.206543 
	C340.681213,737.992554 341.812805,730.612854 343.055511,723.251831 
	C343.357849,721.460938 343.942780,719.703125 344.539490,717.979126 
	C347.342834,709.879822 350.153412,707.745300 357.368958,708.130249 
	C365.299103,708.553284 370.458374,712.607117 372.103882,719.880554 
	C372.577789,721.975403 372.890442,724.149780 372.927765,726.293762 
	C373.304443,747.938110 373.559174,769.584778 373.992340,791.227905 
	C374.049561,794.087219 372.947021,794.911682 370.344635,795.305664 
	C361.292603,796.675842 357.158905,793.307617 357.019501,784.262085 
	C356.721924,764.952271 356.454529,745.641235 355.978119,726.335571 
	C355.909485,723.555725 354.750732,720.802795 354.096466,718.037415 
	C353.342194,717.979065 352.587921,717.920715 351.833679,717.862305 
	C350.547058,722.476929 348.669708,727.018921 348.092194,731.720581 
	C346.733795,742.780029 345.813629,753.903381 345.066345,765.024414 
	C344.492950,773.558044 335.496796,778.525208 328.169403,773.824890 
	C327.060852,773.113770 326.674255,770.757141 326.549164,769.116272 
	C325.639740,757.188293 325.006042,745.238220 323.983246,733.320984 
	C323.754059,730.650513 322.331299,728.082581 321.458038,725.467407 
	C320.882477,725.249451 320.306885,725.031494 319.731323,724.813538 
	C317.770935,727.392395 315.141602,729.699097 313.962738,732.596008 
	C307.988129,747.277405 305.561707,762.634033 306.333862,778.476257 
	C306.528442,782.468872 306.625458,786.480957 307.121124,790.439697 
	C307.525269,793.667725 306.026031,794.611511 303.239807,794.686279 
	C296.730469,794.860901 292.837128,793.460754 292.699554,786.708862 
	C292.289734,766.588318 291.457947,746.476746 290.867859,726.359375 
	C290.750793,722.367615 291.014069,718.365967 291.030792,714.368530 
	C291.045044,710.963318 290.757355,707.594849 295.567139,706.983032 
	C301.625732,706.212280 306.123596,708.083801 307.345642,712.799438 
	C307.994324,715.302490 307.706848,718.062317 307.736664,720.707336 
	C307.761047,722.868408 307.629272,725.031250 307.525452,727.628662 
	C307.481201,728.483765 307.478149,728.903503 307.475098,729.323303 
	C307.641022,728.873047 307.806915,728.422791 307.972839,727.972534 
z"/>
  <path fill="#22A7B4" opacity="1.000000" stroke="none" 
	d="
M398.208466,807.606140 
	C398.493225,811.892273 398.563049,815.737793 399.086517,819.520447 
	C399.604919,823.266418 397.958160,824.143372 394.611725,824.047363 
	C387.710175,823.849304 385.222961,822.104675 385.110809,814.812683 
	C384.709564,788.716858 384.588104,762.614685 384.631042,736.515320 
	C384.645264,727.875793 385.482361,719.238037 385.930481,710.598755 
	C386.204468,705.315979 388.483337,703.690857 395.104492,704.091675 
	C400.373474,704.410706 402.977509,707.062439 402.672058,711.894531 
	C402.557281,713.710083 402.271973,715.514771 402.064392,717.324402 
	C402.507080,717.725769 402.949768,718.127197 403.392456,718.528564 
	C403.812714,717.562622 404.070190,716.477295 404.677612,715.648560 
	C413.942841,703.008972 427.592712,708.326050 433.029419,717.695557 
	C435.633209,722.182861 437.593658,727.432922 438.311584,732.552673 
	C440.546448,748.489990 439.526337,764.134888 430.872070,778.377014 
	C427.887695,783.288330 424.057831,787.299988 418.273773,789.083618 
	C410.913361,791.353333 405.244110,789.162292 400.885559,783.018433 
	C400.452576,782.408081 400.009399,781.804993 399.570953,781.198547 
	C399.111420,781.284119 398.651855,781.369751 398.192291,781.455322 
	C398.192291,790.016174 398.192291,798.577087 398.208466,807.606140 
M423.804474,727.071899 
	C423.211273,724.824829 422.820496,722.499329 421.985565,720.345947 
	C419.784241,714.668579 416.140625,713.609131 411.701599,717.831360 
	C409.005737,720.395447 406.753937,723.690735 405.111420,727.052734 
	C397.567505,742.494141 398.606354,758.295593 403.997223,774.072144 
	C405.367554,778.082520 406.742249,783.279724 411.941315,783.087280 
	C416.894836,782.903748 417.718445,777.624268 418.944183,773.799866 
	C423.724457,758.884766 424.975739,743.540222 423.804474,727.071899 
z"/>
  <path fill="#23A8B5" opacity="1.000000" stroke="none" 
	d="
M464.872742,760.015076 
	C464.603943,769.584656 464.367828,778.714111 464.170227,787.844299 
	C464.111847,790.540161 466.249115,794.060852 461.126678,794.596436 
	C455.948578,795.137817 452.141754,793.268555 451.284058,789.117188 
	C450.680420,786.195618 450.243164,783.187744 450.197235,780.211182 
	C449.855530,758.078918 449.677856,735.944153 449.330383,713.812012 
	C449.256531,709.108093 450.805542,706.649231 455.933380,706.842041 
	C461.855865,707.064758 464.937225,709.255981 465.110382,714.343384 
	C465.268005,718.973694 465.143799,723.613586 465.143799,728.836548 
	C467.137756,725.572266 468.658386,722.513489 470.702454,719.857605 
	C474.700165,714.663330 480.037750,713.088379 484.692444,715.329651 
	C489.050598,717.428101 492.720703,724.759827 491.468170,729.811829 
	C490.342621,734.351501 486.703461,736.241211 481.696228,737.283813 
	C481.469574,735.078308 481.555634,733.103394 481.010315,731.321716 
	C480.330872,729.102112 479.130554,727.041870 478.155151,724.912842 
	C476.219818,726.497986 473.242706,727.717896 472.535889,729.733826 
	C469.963257,737.071472 468.080658,744.657043 466.090149,752.189392 
	C465.456573,754.586914 465.296783,757.109741 464.872742,760.015076 
z"/>
<path fill="#23A8B5" opacity="1.000000" stroke="none" 
	d="
M500.150635,784.743591 
	C495.465485,776.842896 494.799683,768.465332 494.870087,759.905457 
	C494.992126,745.071533 497.144623,730.706909 504.944824,717.758423 
	C508.924957,711.151367 514.217102,706.118774 522.378540,704.958984 
	C528.669312,704.065125 533.054016,706.017639 534.707642,712.061035 
	C535.863220,716.284729 536.368835,721.041565 535.686768,725.324951 
	C534.786255,730.979675 533.043762,736.693176 530.572693,741.859924 
	C526.836365,749.672119 520.978699,755.468384 511.245026,756.140625 
	C511.245026,764.563965 510.816559,772.858643 511.393066,781.082886 
	C511.788666,786.725891 515.584961,788.325989 519.432312,784.204834 
	C523.965454,779.349121 527.307922,773.292847 530.675476,767.473022 
	C532.544373,764.243286 533.411804,760.434082 534.730530,756.886047 
	C535.277405,756.755493 535.824280,756.624939 536.371155,756.494324 
	C536.980652,758.678589 538.492188,761.071594 538.043274,763.010864 
	C536.119629,771.320801 532.818054,779.028503 527.033081,785.600586 
	C520.014099,793.574707 507.738281,794.809753 500.150635,784.743591 
M528.765503,716.311096 
	C525.818115,713.054016 524.003418,713.185120 521.450073,717.623962 
	C515.920471,727.236755 514.164490,738.017395 511.929871,748.844604 
	C521.930542,747.238647 530.218872,731.423035 528.765503,716.311096 
z"/>
  <path fill="#22A8B4" opacity="1.000000" stroke="none" 
	d="
M586.625610,734.550476 
	C586.155151,730.797302 585.976135,727.445862 585.224121,724.228271 
	C584.900574,722.843872 583.597534,721.189392 582.338684,720.710083 
	C581.584473,720.422852 579.532471,721.908569 578.963196,723.047180 
	C576.149048,728.675354 573.026672,734.260193 571.132874,740.216370 
	C566.085083,756.092163 561.599487,772.147339 563.319824,789.146973 
	C563.365051,789.593689 563.023193,790.079590 562.749573,790.872681 
	C561.048401,791.016541 559.244446,791.327271 557.447144,791.292480 
	C551.239258,791.172058 549.144775,789.784973 548.955566,783.624390 
	C548.204712,759.170715 547.855469,734.704834 547.331665,710.244019 
	C547.264343,707.103943 549.045471,705.846008 551.824646,705.297241 
	C559.849915,703.712830 564.286560,707.356201 564.100586,715.277283 
	C563.973755,720.679138 564.076355,726.086304 564.076355,731.522949 
	C567.257324,726.401489 570.192566,721.077637 573.715515,716.176086 
	C577.061890,711.520203 581.934692,708.711426 587.563232,711.302917 
	C590.787170,712.787231 594.608582,715.746460 595.571716,718.846191 
	C598.404663,727.964172 600.906982,737.396790 601.765442,746.866943 
	C603.071106,761.270325 602.909180,775.808105 603.285278,790.291077 
	C603.311951,791.315430 602.747375,793.197449 602.275391,793.257996 
	C598.763794,793.708069 595.168884,794.206482 591.673401,793.887146 
	C588.161377,793.566223 587.534180,790.407776 587.433533,787.473877 
	C587.182251,780.150085 587.006836,772.822327 586.913208,765.494751 
	C586.783325,755.332642 586.756042,745.169250 586.625610,734.550476 
z"/>
<path fill="#22A8B4" opacity="1.000000" stroke="none" 
	d="
M618.047302,728.150757 
	C620.907898,724.060181 623.178223,719.826355 626.496460,716.707336 
	C633.494446,710.129578 639.278931,709.497192 651.477722,712.896118 
	C651.621399,710.874573 651.789917,708.953064 651.889526,707.027954 
	C652.551880,694.228760 653.331299,681.433411 653.771118,668.626465 
	C653.901917,664.819458 655.504578,663.530884 658.945923,663.878662 
	C661.567566,664.143494 664.307190,664.163330 666.757874,664.991638 
	C670.877197,666.384033 671.711243,669.734253 671.343933,673.846558 
	C667.980469,711.500183 665.413147,749.195190 666.048096,787.037354 
	C666.081604,789.035034 666.370605,791.055298 666.157043,793.023438 
	C665.885620,795.525452 668.832581,799.312378 663.555908,800.029907 
	C658.131042,800.767578 654.368896,798.908142 653.472107,794.291687 
	C652.682922,790.229309 652.594849,786.029175 652.226685,781.887329 
	C652.102539,780.489685 652.068970,779.083984 651.925354,776.398804 
	C650.502380,778.917053 649.752747,780.318237 648.935303,781.678650 
	C641.797791,793.556458 626.274902,794.104736 619.215576,782.104980 
	C616.043945,776.713806 614.116821,770.082092 613.470032,763.822693 
	C612.233459,751.856018 613.298828,739.882996 618.047302,728.150757 
M651.288574,754.018860 
	C651.160095,745.540527 651.179260,737.055847 650.814453,728.587708 
	C650.702820,725.996948 649.860779,723.306458 648.787903,720.915283 
	C646.461060,715.729309 641.578613,715.228577 638.326843,719.861633 
	C636.630554,722.278442 635.193970,725.022461 634.293274,727.828430 
	C629.611328,742.414612 628.066895,757.426331 629.135071,772.668518 
	C629.338074,775.565125 630.383850,778.557312 631.685486,781.186218 
	C633.659241,785.172485 636.858582,785.881958 640.225525,783.031555 
	C642.318176,781.259949 644.463013,778.915466 645.288330,776.402466 
	C647.608582,769.336792 649.257690,762.050781 651.288574,754.018860 
z"/>
  <path fill="#25A9B5" opacity="1.000000" stroke="none" 
	d="
M696.531677,702.340149 
	C697.454041,703.959167 698.057617,705.368774 698.661255,706.778442 
	C697.206299,707.329773 695.734680,708.369263 694.300171,708.320374 
	C692.025391,708.242737 689.607178,707.789673 687.572937,706.818481 
	C686.169128,706.148315 685.310669,704.335693 684.208557,703.033630 
	C685.812561,702.139587 687.403076,700.547729 689.023682,700.516418 
	C691.408813,700.470459 693.815491,701.537720 696.531677,702.340149 
z"/>
<path fill="#23A8B5" opacity="1.000000" stroke="none" 
	d="
M686.393860,785.438904 
	C684.628784,774.785828 682.331482,764.507202 681.682617,754.125610 
	C680.895020,741.525269 681.524414,728.837891 681.485352,716.188354 
	C681.472961,712.158386 683.235596,710.685608 687.334534,710.870667 
	C696.466309,711.283081 699.123779,714.331421 698.899231,723.658325 
	C698.415039,743.774109 698.254333,763.897644 697.889404,784.016663 
	C697.855896,785.867126 697.596863,789.159668 696.942505,789.291016 
	C694.664246,789.748352 692.078918,789.415527 689.785950,788.764465 
	C688.538330,788.410217 687.645142,786.807434 686.393860,785.438904 
z"/>
<path fill="#23A8B5" opacity="1.000000" stroke="none" 
	d="
M711.182068,765.678101 
	C710.965332,748.718933 712.590210,732.576294 721.201721,717.998840 
	C725.122498,711.361694 730.383484,706.259583 738.522095,704.991821 
	C745.322571,703.932434 749.804504,706.591309 751.715027,713.155396 
	C755.189575,725.093140 748.902649,744.622070 738.788818,752.016174 
	C735.810852,754.193481 732.018738,755.257202 727.916992,757.145569 
	C727.916992,764.843018 727.554810,773.418823 728.064392,781.942505 
	C728.333618,786.446899 731.449158,787.684509 735.069824,784.906433 
	C738.025269,782.638794 740.824036,779.693909 742.589233,776.449158 
	C745.982178,770.212341 748.593750,763.550354 752.740662,756.516907 
	C753.401062,758.687622 755.134827,761.233826 754.530212,762.961914 
	C752.296509,769.346130 749.905823,775.834534 746.413513,781.577942 
	C742.304199,788.336365 736.426514,793.327637 727.471191,791.686279 
	C717.423157,789.844788 714.218384,782.161865 712.238464,773.554016 
	C711.681580,771.132568 711.535095,768.616760 711.182068,765.678101 
M741.100464,714.326660 
	C731.681702,723.879150 731.534851,736.670410 728.079529,749.576294 
	C730.439392,748.646851 731.690063,748.338623 732.748291,747.707642 
	C739.971313,743.401062 747.518188,726.505615 745.595947,718.279419 
	C745.218811,716.665710 743.126587,715.452759 741.100464,714.326660 
z"/>
<path fill="#23A8B5" opacity="1.000000" stroke="none" 
	d="
M818.913940,758.023132 
	C819.219482,768.996826 819.614197,779.473938 819.696167,789.953491 
	C819.706665,791.303345 818.403442,793.380188 817.185303,793.904846 
	C810.033813,796.985107 804.134888,793.529236 803.904846,785.878296 
	C803.414185,769.564453 803.378540,753.237366 803.009583,736.919067 
	C802.916016,732.776550 802.467468,728.613098 801.772400,724.529053 
	C801.532776,723.121033 800.232056,721.131348 799.078735,720.864258 
	C798.011841,720.617249 795.819763,722.015808 795.283875,723.210388 
	C791.826965,730.916016 787.942627,738.549255 785.614563,746.614990 
	C781.797974,759.837708 777.945190,773.225891 779.827332,787.316223 
	C780.218872,790.247803 778.874451,791.018372 776.233948,791.273621 
	C768.406616,792.030334 765.268982,789.907043 765.073364,781.992188 
	C764.485107,758.198914 764.323792,734.395386 763.858521,710.598511 
	C763.791260,707.159668 765.388489,705.846863 768.395569,705.280396 
	C776.703369,703.715393 781.224365,707.642090 780.633972,715.869568 
	C780.243408,721.312317 780.015564,726.766785 779.677429,732.896545 
	C783.572510,726.674683 786.604797,720.786560 790.621704,715.671753 
	C795.985413,708.841858 803.642090,708.540894 809.082214,714.587585 
	C811.243774,716.990173 813.394592,720.025818 814.008240,723.082825 
	C815.996643,732.987793 817.294556,743.032471 818.792725,753.033264 
	C819.013062,754.503967 818.877319,756.028015 818.913940,758.023132 
z"/>

<path fill="#22A7B4" opacity="1.000000" stroke="none" 
	d="
M870.045349,670.111938 
	C870.565002,663.778748 870.965759,663.496887 878.285522,663.874634 
	C884.901855,664.216187 888.243408,667.116638 887.876831,672.753052 
	C887.282959,681.883850 886.007751,690.981384 885.682556,700.116577 
	C884.575928,731.208740 883.794495,762.312256 882.759644,793.407227 
	C882.681824,795.745789 884.975464,799.362366 880.101196,800.039062 
	C874.670105,800.793091 870.927673,798.954956 869.978943,794.414856 
	C869.336670,791.341553 869.258972,788.147766 868.970276,785.004028 
	C868.762085,782.737549 868.622314,780.464783 868.370361,777.108215 
	C867.168945,778.830078 866.567200,779.551697 866.118225,780.358276 
	C862.696411,786.505615 858.318787,791.300049 850.517700,790.726501 
	C841.849670,790.089294 835.797485,785.552307 832.940002,777.422852 
	C827.487793,761.911438 828.612122,746.289368 833.546021,730.933350 
	C834.877380,726.789551 837.399048,722.752991 840.259277,719.428406 
	C848.110168,710.302917 856.533569,708.600586 867.760559,713.286194 
	C868.519409,698.979004 869.273010,684.772095 870.045349,670.111938 
M867.870911,735.722900 
	C867.173035,731.132568 866.943848,726.395508 865.573181,722.015686 
	C864.919434,719.926880 862.285706,717.504272 860.196899,717.113647 
	C858.463562,716.789429 855.798096,718.850403 854.308167,720.530945 
	C852.719971,722.322327 851.512878,724.802979 851.032410,727.164368 
	C848.917053,737.559937 846.496216,747.958252 845.443054,758.481445 
	C844.779480,765.110535 845.538818,772.155273 847.112000,778.662598 
	C848.889465,786.014893 854.322510,786.884521 858.887756,780.761658 
	C861.596191,777.128967 863.358215,772.632996 864.856995,768.287598 
	C868.391113,758.040833 868.182678,747.342651 867.870911,735.722900 
z"/>
<path fill="#23A8B5" opacity="1.000000" stroke="none" 
	d="
M908.801025,714.928955 
	C913.364929,703.672363 923.347961,701.655518 932.456787,709.889282 
	C940.068726,716.769897 943.205139,725.837158 943.910034,735.692261 
	C944.428711,742.944641 944.011780,750.264038 944.011780,757.929138 
	C945.850891,757.838928 947.572021,757.754517 949.293213,757.670105 
	C949.632141,757.966614 949.971069,758.263123 950.309998,758.559570 
	C948.624207,760.391113 946.926758,762.212036 945.256165,764.057251 
	C943.848694,765.611755 941.827209,766.972534 941.197205,768.804199 
	C938.832886,775.677063 936.009766,782.273621 930.162476,786.839355 
	C918.142090,796.225281 898.520386,793.389099 893.116516,771.817261 
	C889.433533,757.115295 891.090332,742.695068 896.256836,728.704407 
	C897.967957,724.070984 900.001099,718.827942 906.688721,718.746643 
	C907.369629,718.738342 908.023621,716.506653 908.801025,714.928955 
M932.150635,764.412903 
	C920.002930,761.575195 914.517029,752.014587 909.598938,741.720337 
	C908.756470,746.190918 908.082092,750.436584 907.945007,754.699585 
	C907.773926,760.016235 907.795044,765.367126 908.215942,770.664856 
	C908.489258,774.105469 909.270935,777.605774 910.448730,780.853088 
	C912.709290,787.085449 917.532410,788.401733 922.523865,784.149048 
	C928.409363,779.134705 931.868530,772.666321 932.150635,764.412903 
M935.704224,743.784546 
	C935.468872,741.138672 935.713074,738.335327 934.905945,735.877197 
	C932.712463,729.197449 930.463013,722.471680 927.363770,716.194702 
	C926.485596,714.416138 922.516479,713.232422 920.151062,713.489380 
	C918.854797,713.630188 917.168213,717.286865 916.997253,719.463318 
	C916.202148,729.589966 918.400879,739.278625 922.826782,748.367981 
	C925.203674,753.249268 929.064819,756.680237 934.981018,758.173340 
	C935.249756,753.285156 935.485962,748.987122 935.704224,743.784546 
z"/>
<path fill="#25A9B5" opacity="1.000000" stroke="none" 
	d="
M981.561768,711.745667 
	C988.171997,715.386902 989.043823,721.055054 982.975830,724.482056 
	C975.149963,728.901917 966.557495,731.964417 957.738342,734.679138 
	C963.717896,724.841797 968.244385,713.876038 981.561768,711.745667 
z"/>
<path fill="#25A9B5" opacity="1.000000" stroke="none" 
	d="
M1009.949036,739.090088 
	C1013.189758,744.841980 1012.104187,748.395020 1006.202271,749.026733 
	C1000.036987,749.686523 993.635925,749.355835 987.471619,748.497986 
	C980.131592,747.476440 972.933716,745.433167 964.381592,743.547485 
	C966.577332,742.380005 967.575623,741.675720 968.684448,741.286682 
	C978.928101,737.693054 989.403198,735.154907 1000.337219,736.029602 
	C1003.505127,736.283142 1006.567810,737.852295 1009.949036,739.090088 
z"/>
<path fill="#23A8B5" opacity="1.000000" stroke="none" 
	d="
M976.913574,775.160522 
	C968.315979,770.041870 963.259338,762.272156 957.384216,753.232788 
	C968.189392,755.807556 977.701965,758.040894 985.456970,764.633423 
	C988.139099,766.913391 988.730347,770.051453 986.792175,773.183533 
	C984.399658,777.049927 980.987244,777.096741 976.913574,775.160522 
z"/>
<path fill="#20A7B4" opacity="1.000000" stroke="none" 
	d="
M177.994904,909.149048 
	C180.415909,890.267456 191.328064,877.831360 207.440628,870.493530 
	C233.422424,858.660950 254.674667,840.813477 274.507263,820.892151 
	C277.424652,817.961670 279.931091,814.595825 282.431915,811.283569 
	C285.514252,807.201294 288.964569,806.063904 293.745880,807.845764 
	C299.448730,809.971130 303.052460,814.030457 304.992035,819.738647 
	C308.176636,829.111267 308.201935,838.634399 307.014160,848.356506 
	C304.875519,865.861694 303.272400,883.433044 301.074799,900.930115 
	C298.420746,922.061646 295.234131,943.126099 292.560333,964.255310 
	C290.805359,978.123779 289.539398,992.054321 288.088776,1005.960632 
	C287.955139,1007.241638 288.071045,1008.548645 288.071045,1010.516479 
	C290.948395,1009.693420 293.308960,1009.053589 295.647827,1008.342285 
	C302.057739,1006.392517 308.622803,1005.985535 314.682007,1008.821960 
	C317.295624,1010.045410 320.015625,1013.138245 320.604065,1015.836182 
	C320.981171,1017.565186 317.997650,1021.178223 315.752472,1022.124939 
	C306.893219,1025.860596 297.769012,1028.989624 288.658142,1032.094482 
	C285.634552,1033.124878 284.334961,1034.478882 283.850067,1037.910034 
	C281.132812,1057.136475 273.422119,1074.632812 264.095459,1091.439087 
	C252.864670,1111.676514 239.748749,1130.455566 220.849579,1144.457031 
	C211.885300,1151.098145 202.134537,1156.042480 190.795685,1156.868652 
	C168.852188,1158.467041 148.320572,1140.807495 144.979187,1117.959595 
	C143.210129,1105.863037 146.626663,1095.237549 153.175522,1085.371704 
	C163.467438,1069.866821 177.031570,1057.612183 192.222748,1047.138916 
	C211.886307,1033.582275 232.705536,1022.163513 255.262589,1014.053467 
	C256.505676,1013.606445 257.865234,1011.659302 258.019836,1010.281311 
	C260.488220,988.281860 262.853210,966.269714 265.070557,944.243286 
	C267.688354,918.238770 270.163330,892.219788 272.651459,866.202393 
	C273.315643,859.257080 273.801788,852.294739 274.488800,843.881653 
	C272.128082,845.687744 270.690002,846.607971 269.462799,847.754028 
	C253.326660,862.823242 236.188538,876.468445 216.083099,886.018433 
	C212.641357,887.653259 209.458817,889.839722 206.180679,891.811584 
	C201.041000,894.903137 199.761780,899.010315 200.190521,905.241150 
	C200.478790,909.430481 197.559204,915.053162 194.240662,917.886475 
	C191.679733,920.072998 186.091431,919.807678 182.170746,919.023804 
	C177.532593,918.096375 177.550201,913.587341 177.994904,909.149048 
M231.699005,1047.158203 
	C225.395966,1051.505859 218.882095,1055.580688 212.831665,1060.255371 
	C198.033615,1071.688477 183.935898,1083.855591 173.465790,1099.670776 
	C167.285965,1109.005615 166.993866,1118.647339 171.286499,1128.647339 
	C174.480545,1136.088013 178.468338,1138.105957 186.352966,1136.461304 
	C199.660690,1133.685425 209.127472,1125.007812 217.635376,1115.292236 
	C234.968002,1095.499634 245.631958,1072.156494 252.697617,1047.043579 
	C253.570938,1043.939941 253.788361,1040.651611 254.309738,1037.448853 
	C253.899506,1037.065186 253.489273,1036.681519 253.079025,1036.297852 
	C246.168472,1039.806763 239.257904,1043.315796 231.699005,1047.158203 
z"/>
  <path fill="#20A7B4" opacity="1.000000" stroke="none" 
	d="
M388.179016,1033.155396 
	C381.519287,1040.552612 375.836670,1048.642090 368.398041,1054.502930 
	C355.356781,1064.777954 342.716797,1061.751465 333.802368,1047.712280 
	C327.441101,1037.694092 325.346985,1026.501953 324.763458,1014.884888 
	C323.941589,998.523254 324.372070,982.223816 328.094482,966.206238 
	C329.989777,958.050598 333.306671,950.593018 342.318787,947.795776 
	C350.262695,945.330017 355.366760,947.723572 355.862640,955.864685 
	C356.566315,967.417542 355.907898,979.080078 355.372345,990.674500 
	C354.781555,1003.464294 353.454315,1016.221924 352.974274,1029.013306 
	C352.880096,1031.522217 354.669586,1035.625732 356.530426,1036.267456 
	C358.499481,1036.946411 362.496735,1035.071533 364.029724,1033.090576 
	C369.615051,1025.873169 375.225494,1018.516663 379.559143,1010.525391 
	C386.529724,997.671631 392.490540,984.270508 398.882874,971.102966 
	C400.989014,966.764526 402.886871,962.304504 405.291931,958.137817 
	C407.396027,954.492554 409.266632,949.615173 414.621338,950.433899 
	C420.653351,951.356262 426.506134,953.648254 428.718018,960.113098 
	C430.042572,963.984436 431.097473,968.276733 430.855743,972.294556 
	C430.077057,985.237061 428.558441,998.133179 427.478485,1011.059998 
	C426.189178,1026.492432 424.851013,1041.927246 424.035461,1057.387451 
	C423.874298,1060.442627 425.987793,1063.617676 427.052307,1066.737427 
	C429.745270,1065.066162 433.285645,1063.997070 434.978668,1061.614990 
	C441.039337,1053.087646 446.626526,1044.208984 452.104218,1035.286133 
	C458.023285,1025.644287 463.686096,1015.842224 469.293488,1006.014709 
	C470.302032,1004.247131 470.968109,1002.023743 470.995575,999.999939 
	C471.151733,988.502197 470.710602,976.985352 471.223389,965.508545 
	C471.454346,960.339478 472.789642,954.989685 474.749481,950.180603 
	C477.898438,942.453796 486.427307,941.347778 492.131073,947.556274 
	C497.326233,953.211182 499.258331,960.366150 499.920471,967.709290 
	C500.801727,977.482483 501.017456,987.315674 501.555267,997.831665 
	C502.244720,996.164490 502.812012,994.950500 503.256714,993.693115 
	C507.857391,980.685730 512.062988,967.520935 517.191284,954.725647 
	C519.569885,948.791016 523.427246,943.351013 527.205261,938.113037 
	C529.385437,935.090393 532.444153,932.438171 535.626099,930.448669 
	C547.045898,923.308472 560.438904,926.945618 566.727417,938.820007 
	C572.342468,949.422791 575.337158,960.968750 575.875427,972.814148 
	C576.978943,997.096191 577.217224,1021.416504 577.985657,1045.715576 
	C578.167358,1051.462036 579.036804,1057.186768 579.589844,1062.921631 
	C580.078308,1063.041260 580.566711,1063.160889 581.055115,1063.280518 
	C582.440613,1061.177490 584.120178,1059.210449 585.164551,1056.949951 
	C592.767761,1040.493164 600.263062,1023.986267 607.715637,1007.460632 
	C608.237732,1006.302917 608.359619,1004.858521 608.305359,1003.562683 
	C606.992126,972.175903 608.149475,940.947144 614.102051,910.011414 
	C614.256531,909.208374 614.235779,908.371582 614.324097,907.181580 
	C610.897400,907.181580 607.614136,907.297485 604.341248,907.162781 
	C582.874329,906.279236 561.416077,905.093323 539.941162,904.545166 
	C531.509216,904.329895 522.998230,905.143860 514.605835,906.167053 
	C508.870636,906.866211 504.841644,910.102661 504.499298,916.643555 
	C504.292755,920.589355 502.115265,923.469666 498.004181,923.559998 
	C493.732178,923.653931 491.962555,920.344971 491.345306,916.690552 
	C490.136078,909.531860 492.627075,903.244751 498.931519,900.121948 
	C507.185242,896.033569 515.890625,891.700745 524.829407,890.390442 
	C543.888855,887.596558 563.204895,886.400330 582.453308,885.108582 
	C593.244507,884.384399 604.113037,884.603760 614.941711,884.754639 
	C619.076111,884.812195 620.956421,883.523621 622.229492,879.425293 
	C625.894409,867.627258 630.691406,856.261169 638.484375,846.475525 
	C642.744019,841.126892 647.755066,836.859009 655.208557,836.982849 
	C661.777710,837.091919 664.117432,839.580505 662.807312,846.079712 
	C661.759277,851.278625 660.037903,856.348389 658.496765,861.439575 
	C656.380981,868.429199 654.153137,875.384949 651.578308,883.618225 
	C659.553833,882.331116 666.718689,881.419189 673.775696,879.978943 
	C684.430664,877.804443 694.680176,874.412415 703.770874,868.190369 
	C707.588684,865.577332 710.527283,862.438354 711.222168,857.478516 
	C711.392456,856.263000 713.502930,855.319275 714.721436,854.250610 
	C715.765686,855.645935 717.730042,857.061035 717.700500,858.433228 
	C717.543152,865.743408 714.348755,871.876526 709.310791,877.099243 
	C699.793030,886.966370 687.933167,892.913696 675.084290,896.887268 
	C667.001404,899.386902 658.683838,901.188171 650.390686,902.913940 
	C647.580261,903.498840 646.510864,904.700500 645.999817,907.334656 
	C637.823242,949.481079 635.400146,991.914978 640.174561,1034.615845 
	C641.165833,1043.481079 643.592224,1052.234375 645.955078,1060.875854 
	C647.072266,1064.961670 649.165100,1068.959595 651.572754,1072.479614 
	C658.506287,1082.617065 669.307312,1082.806396 676.824341,1073.110229 
	C684.821838,1062.794312 689.358459,1050.749512 692.886108,1038.423096 
	C696.995239,1024.064575 700.051514,1009.407288 704.015747,995.003784 
	C705.722778,988.801575 707.904785,982.544922 711.016541,976.950134 
	C719.585144,961.544067 732.910889,956.819275 749.615112,962.557739 
	C758.541138,965.624084 765.805542,970.902344 771.269165,979.882812 
	C772.219177,977.224792 772.932983,975.335999 773.572021,973.422241 
	C777.830688,960.669006 794.364868,955.479614 805.192322,963.515930 
	C809.052673,966.381104 808.875732,970.064087 807.743103,974.270752 
	C803.205811,991.122986 798.270691,1007.902100 794.660889,1024.957642 
	C792.402649,1035.627563 792.119202,1046.732666 791.275330,1057.667603 
	C791.135559,1059.478882 792.670959,1061.419189 793.432190,1063.299927 
	C795.313232,1062.447144 797.733215,1062.070679 798.981506,1060.658569 
	C804.269714,1054.676392 809.568298,1048.642578 814.199402,1042.153687 
	C822.806458,1030.093628 830.854675,1017.636047 839.347717,1005.492249 
	C841.737183,1002.075500 842.000793,998.738098 841.683350,994.728516 
	C839.663269,969.210510 846.346313,946.732239 866.594788,929.908813 
	C880.913452,918.012146 897.842285,914.623901 915.932556,918.178162 
	C927.929199,920.535095 936.163208,928.329895 940.807129,939.340576 
	C947.660706,955.590515 946.687195,971.919922 938.870544,987.619019 
	C937.196411,990.981323 934.076965,994.064636 930.878601,996.114014 
	C927.024475,998.583557 923.336182,996.627563 923.011963,992.070862 
	C922.626099,986.649231 923.251343,981.153564 923.473328,975.691467 
	C923.689209,970.377869 924.396973,965.040222 924.091614,959.759216 
	C923.545776,950.320312 919.583557,942.450012 910.415100,938.813965 
	C900.734558,934.974792 891.360413,936.491089 883.235718,943.216980 
	C874.535706,950.419250 871.330078,960.469666 868.942017,971.073730 
	C865.923828,984.475769 869.103271,995.735352 879.044861,1005.175415 
	C883.755676,1009.648621 888.321472,1014.274353 893.021545,1018.759216 
	C900.606995,1025.997314 908.249146,1033.176270 916.279236,1040.769653 
	C924.188782,1034.261230 932.600098,1027.538818 940.785889,1020.552002 
	C950.159363,1012.551514 959.246704,1004.215088 968.648804,996.249329 
	C971.238647,994.055115 974.334900,992.055298 977.534241,991.143921 
	C979.289917,990.643860 982.437561,992.072815 983.630676,993.641357 
	C984.371338,994.614929 983.225281,998.068970 981.907593,999.405579 
	C963.430054,1018.147827 944.776917,1036.716919 926.021606,1055.472778 
	C934.556519,1068.848511 938.697510,1083.473999 937.808899,1099.165161 
	C936.229309,1127.058838 924.770386,1149.481812 899.973816,1163.873413 
	C890.284973,1169.496704 879.640991,1171.114136 868.607422,1169.911133 
	C853.271484,1168.239624 843.177063,1154.049194 844.527405,1136.838867 
	C845.636414,1122.704956 851.290894,1110.235352 859.632507,1099.352173 
	C868.818970,1087.366821 879.428528,1076.470947 889.443054,1065.122559 
	C890.758057,1063.632324 892.221008,1062.272705 893.970032,1060.491455 
	C877.775696,1047.006836 859.002441,1036.312378 848.362915,1016.336060 
	C847.032532,1018.577942 846.026978,1020.251099 845.041931,1021.936279 
	C837.732910,1034.439575 830.872559,1047.235962 822.960815,1059.345215 
	C817.912170,1067.072388 812.091064,1074.664307 805.230713,1080.756714 
	C793.084839,1091.542847 774.506348,1088.673706 767.790833,1075.513428 
	C765.619446,1071.258301 764.522888,1065.954468 764.589172,1061.153198 
	C764.775208,1047.688477 765.824219,1034.235840 766.584534,1019.794312 
	C764.225647,1024.255737 762.465759,1028.164795 760.198975,1031.753662 
	C755.063782,1039.883667 750.492493,1048.569458 744.212097,1055.731812 
	C733.801880,1067.603882 720.240723,1066.181885 710.944031,1053.280396 
	C709.237122,1050.911621 707.848572,1048.313477 705.914917,1045.174927 
	C704.429260,1048.614380 703.203308,1051.451660 701.978088,1054.289185 
	C695.767151,1068.673706 687.741333,1081.790039 675.534424,1091.959351 
	C660.175110,1104.754761 643.314148,1102.914307 631.204712,1086.981323 
	C621.930542,1074.778687 617.468750,1060.505737 614.037720,1045.832886 
	C613.621582,1044.053223 613.213867,1042.271606 612.584167,1039.547485 
	C611.509155,1041.882080 610.763306,1043.478516 610.036743,1045.083496 
	C603.844116,1058.762207 597.293823,1072.244141 587.192322,1083.582397 
	C584.882202,1086.175293 582.306396,1088.649780 579.471924,1090.634888 
	C571.610718,1096.140015 562.685242,1094.419678 559.114868,1085.550171 
	C555.688354,1077.037964 552.946228,1067.804077 552.294250,1058.715698 
	C551.008972,1040.799927 551.662781,1022.754578 550.971436,1004.783691 
	C550.434692,990.830017 549.268738,976.889221 547.928284,962.986511 
	C547.626831,959.859741 545.435913,956.915100 544.114868,953.886719 
	C541.410889,956.151978 537.643799,957.884033 536.192322,960.777527 
	C530.762756,971.601379 525.427490,982.564636 521.303223,993.927917 
	C516.148499,1008.130676 512.497559,1022.872925 507.629608,1037.189209 
	C505.745026,1042.731689 503.024445,1048.319458 499.396790,1052.856812 
	C494.782532,1058.628174 487.756653,1058.786743 482.830688,1053.247925 
	C478.552338,1048.437256 475.658203,1042.395386 472.046967,1036.732422 
	C471.615112,1037.479004 470.744141,1039.104614 469.763397,1040.660889 
	C462.589844,1052.044922 455.995789,1063.860718 448.009460,1074.644409 
	C441.953247,1082.822021 433.992218,1089.445923 422.839172,1090.138184 
	C411.741821,1090.827026 403.960815,1085.893921 399.051788,1076.158447 
	C394.714905,1067.557739 393.934265,1058.281494 394.525604,1048.884644 
	C395.048309,1040.579102 396.021362,1032.302246 396.768860,1024.010254 
	C396.932037,1022.199768 396.981720,1020.379028 396.418640,1018.285522 
	C393.734253,1023.138428 391.049835,1027.991211 388.179016,1033.155396 
M891.226196,1090.739868 
	C885.676636,1100.170044 879.346863,1109.247925 874.870178,1119.162476 
	C872.184937,1125.109375 871.149475,1132.443359 871.572327,1139.012207 
	C872.348511,1151.070190 878.574463,1153.619629 887.898804,1145.984741 
	C904.275146,1132.575684 913.517822,1115.149658 914.448608,1093.834839 
	C914.788086,1086.061646 912.200256,1078.961792 906.435791,1072.639038 
	C901.302490,1078.738525 896.487610,1084.459717 891.226196,1090.739868 
M725.812439,1013.364807 
	C725.827881,1021.622742 725.454895,1029.909424 726.065430,1038.123169 
	C726.284668,1041.073608 728.873230,1043.848022 730.380493,1046.702759 
	C733.006470,1044.923218 736.382385,1043.686768 738.131287,1041.272095 
	C746.614807,1029.558594 754.817444,1017.632324 762.813416,1005.578369 
	C768.955200,996.319702 768.609436,994.217773 761.300659,985.698059 
	C760.218506,984.436646 759.056885,983.230408 757.835083,982.103760 
	C749.669250,974.573975 742.952515,975.203979 736.601196,984.255676 
	C730.647766,992.740479 727.855835,1002.472046 725.812439,1013.364807 
z"/>
  </g>
</svg>